<?xml version="1.0" standalone="no"?>
<!DOCTYPE svg PUBLIC "-//W3C//DTD SVG 20010904//EN"
 "http://www.w3.org/TR/2001/REC-SVG-20010904/DTD/svg10.dtd">
<svg version="1.0" xmlns="http://www.w3.org/2000/svg"
 width="3603.000000pt" height="3173.000000pt" viewBox="0 0 3603.000000 3173.000000"
 preserveAspectRatio="xMidYMid meet">

<g transform="translate(0.000000,3173.000000) scale(0.100000,-0.100000)"
fill="#000000" stroke="none">
<path d="M17920 31676 c-120 -35 -237 -127 -327 -258 -28 -40 -432 -739 -898
-1553 -1174 -2049 -1639 -2854 -2093 -3625 -234 -396 -307 -533 -346 -653 -83
-253 -72 -501 33 -755 45 -108 79 -169 413 -742 168 -289 493 -851 723 -1250
403 -701 650 -1133 2247 -3930 687 -1203 968 -1691 2203 -3835 553 -960 1183
-2060 1535 -2680 150 -264 295 -510 322 -547 74 -100 185 -199 270 -241 154
-75 246 -85 713 -75 182 4 1532 5 3000 2 1633 -3 2781 -1 2955 4 313 11 385
23 506 82 253 124 300 393 135 775 -29 67 -328 599 -770 1370 -1061 1847
-2947 5152 -4416 7735 -709 1246 -1888 3318 -2620 4605 -733 1287 -1677 2948
-2100 3690 -904 1590 -849 1496 -937 1613 -110 147 -181 210 -289 253 -67 26
-195 34 -259 15z"/>
<path d="M11553 20499 c-151 -25 -297 -140 -430 -339 -71 -107 -224 -370 -408
-700 -87 -157 -832 -1464 -1655 -2905 -2907 -5088 -7614 -13365 -8696 -15291
-221 -393 -248 -447 -290 -576 -23 -69 -27 -102 -28 -193 -1 -105 1 -114 31
-176 60 -121 176 -198 364 -242 l94 -22 2980 0 c1639 0 3113 -4 3275 -8 249
-8 311 -6 398 7 313 48 535 193 717 471 29 44 157 269 285 500 409 738 931
1671 1775 3175 1025 1827 1077 1921 2270 4055 1473 2637 2072 3705 2796 4986
184 326 325 586 348 645 99 247 95 462 -13 689 -23 49 -94 171 -157 270 -150
234 -351 571 -579 970 -206 360 -1570 2717 -1893 3270 -447 766 -642 1093
-693 1161 -144 192 -318 282 -491 253z"/>
<path d="M17246 6958 c-151 -20 -297 -80 -401 -165 -108 -88 -179 -191 -410
-595 -543 -950 -1009 -1751 -2203 -3788 -895 -1527 -833 -1418 -893 -1545 -63
-134 -89 -215 -96 -305 -11 -144 35 -267 137 -364 70 -67 154 -108 264 -131
71 -14 1046 -16 10917 -15 7501 0 10863 4 10917 11 338 46 511 202 512 460 0
99 -41 244 -108 383 -59 122 -148 277 -1090 1911 -901 1561 -1501 2617 -1937
3405 -174 315 -218 383 -314 483 -119 124 -262 202 -446 243 -76 17 -418 18
-7435 19 -4045 0 -7382 -3 -7414 -7z"/>
</g>
</svg>
