<svg id="Слой_1" data-name="Слой 1" xmlns="http://www.w3.org/2000/svg" viewBox="0 0 1246.81 895.75">
  <defs>
    <style>
      .cls-1 {
        fill: #fff;
      }
    </style>
  </defs>
  <title>Logo A Alfix Prog</title>
  <g>
    <path class="cls-1" d="M1478.28,957.4C1346,883,1291.72,856.4,1150.68,821.68a997.66,997.66,0,0,0-186.11-27.84C731.1,781.44,521.14,847.33,331.51,982c-8.13,5.77-16.73,10.88-25.11,16.3l0,0C320.54,979.7,334,960.46,349,942.56c88.43-105.4,186.09-201.18,297.85-281.92,121.57-87.83,253.35-154.07,400-189.14,81.82-19.56,164.58-26.33,248.38-21.53,14.49.83,28.87,3.74,43.2,7.79-35.7,5.11-71.57,9.25-107.07,15.5-127.53,22.43-247.71,64.09-354.45,139.37-19.1,13.47-36.64,29.13-54.27,45.85,119.53-25.67,235.39-18.59,353.21,33.25L1088.4,564.2,1211,513.9c18.43,25.81,36.29,50.59,53.92,75.54Q1407.39,791,1549.73,992.66a43.7,43.7,0,0,1,3.46,5.67S1482.42,960.1,1478.28,957.4Z" transform="translate(-306.38 -102.59)"/>
    <path class="cls-1" d="M536.62,664.31,927.14,102.59l202.67,289L977,409.63l-66.19-89.37L807,468.06,849.38,459l.89,2.18C814.85,481,778.8,499.77,744.19,520.9,708,543,672.52,566.56,637.82,591c-33.94,23.92-66.51,49.77-99.68,74.77Z" transform="translate(-306.38 -102.59)"/>
  </g>
</svg>
