<?xml version="1.0" encoding="UTF-8"?>
<svg version="1.1" xmlns="http://www.w3.org/2000/svg" width="512" height="512">
<path d="M0 0 C1.3166716 -0.00511093 2.6333432 -0.01022186 3.98991394 -0.01548767 C7.57901101 -0.02879911 11.16800226 -0.02946495 14.75711918 -0.02692437 C17.76608639 -0.02584888 20.77503269 -0.03075296 23.78399539 -0.03552979 C30.89133208 -0.04659875 37.99861591 -0.04707773 45.10595703 -0.04101562 C52.40694403 -0.03498344 59.70773795 -0.04727357 67.00869203 -0.06858569 C73.30372911 -0.08627716 79.59870517 -0.09219106 85.89376616 -0.08894795 C89.64161546 -0.08714625 93.38932713 -0.08965835 97.13715363 -0.10366249 C100.66675004 -0.11635914 104.19604872 -0.11418678 107.72564125 -0.1012516 C109.6160067 -0.09780784 111.50638176 -0.10897717 113.39671326 -0.12081909 C125.80467597 -0.04563502 136.39944934 2.00916524 146.60839844 9.2746582 C148.18621094 10.3884082 148.18621094 10.3884082 149.79589844 11.5246582 C160.01280862 21.51452593 164.56021983 33.15091028 164.74884033 47.23674011 C164.76083937 49.64283275 164.76735693 52.04895655 164.76953125 54.45507812 C164.77449615 55.77306396 164.77946106 57.0910498 164.78457642 58.44897461 C164.7976342 62.05049016 164.80413244 65.65198713 164.80858707 69.25352263 C164.81152872 71.50917477 164.81563554 73.76482195 164.82009125 76.02047157 C164.83374914 83.09405593 164.84342397 90.1676288 164.84729314 97.24122542 C164.85176893 105.37659131 164.86930167 113.51178878 164.89829373 121.64710349 C164.91998692 127.95566366 164.93000149 134.26417672 164.93133426 140.57277375 C164.93237689 144.33125292 164.93816814 148.0895734 164.95615387 151.84801292 C164.97276728 155.38823272 164.97472666 158.92817678 164.96601486 162.46842194 C164.96489104 164.36736069 164.97850564 166.26629086 164.99276733 168.16517639 C164.92324915 182.63413553 161.42396185 194.66177123 151.55761719 205.42700195 C148.23696124 208.57463775 144.57849443 211.02018871 140.60839844 213.2746582 C139.01049469 214.29165298 139.01049469 214.29165298 137.38031006 215.32919312 C131.18208156 218.38523486 124.51131034 217.84996181 117.75390625 217.82397461 C116.25496409 217.83268059 114.75603081 217.84305079 113.2571106 217.85494995 C109.20308776 217.88163253 105.14943897 217.88289802 101.0953455 217.87782335 C97.70108661 217.87567647 94.30690225 217.88547002 90.91265941 217.89503419 C82.8977704 217.91719253 74.88306885 217.91811856 66.86816406 217.90600586 C58.6246128 217.89393821 50.3817453 217.9185242 42.13831067 217.961146 C35.03988741 217.9964859 27.94168069 218.00836357 20.84317279 218.00187051 C16.61286233 217.99826028 12.38303923 218.00335937 8.15280914 218.03129959 C4.16990414 218.05662346 0.18805637 218.05241495 -3.79483414 218.02647781 C-5.24755602 218.0217823 -6.70035425 218.02708536 -8.15298843 218.04372406 C-21.7026566 218.18759979 -31.330689 214.10436726 -41.12988281 204.77856445 C-47.59913133 197.6165812 -52.62948378 189.72694616 -52.6590271 179.92547607 C-52.66755707 178.64424362 -52.67608704 177.36301117 -52.68487549 176.04295349 C-52.68417651 174.63027942 -52.68325348 173.21760544 -52.68212891 171.80493164 C-52.68811589 170.31142339 -52.69492183 168.81791822 -52.70248413 167.32441711 C-52.72013656 163.27256864 -52.72483926 159.22080468 -52.7261157 155.16892147 C-52.72753858 152.63489596 -52.73181082 150.10089184 -52.73711014 147.56687164 C-52.75560968 138.71896504 -52.76378107 129.87111866 -52.76220703 121.02319336 C-52.76100646 112.78832275 -52.78209231 104.55371459 -52.81369436 96.31891036 C-52.83989053 89.23930946 -52.85057289 82.15979409 -52.84929621 75.08014512 C-52.84878745 70.85612907 -52.8544226 66.63234618 -52.87565231 62.4083786 C-52.89509055 58.43230027 -52.89512141 54.45667612 -52.88061905 50.48058128 C-52.87853657 49.02659882 -52.88319831 47.57258751 -52.89533997 46.11865425 C-52.95926535 37.9290141 -52.58767422 31.42402405 -48.39160156 24.2746582 C-47.93398438 23.42774414 -47.47636719 22.58083008 -47.00488281 21.70825195 C-39.49861107 10.18961874 -29.53671953 3.61023242 -16.1140213 0.70267677 C-10.77101838 -0.13734963 -5.39671941 -0.01088517 0 0 Z " fill="#000000" transform="translate(71.3916015625,275.725341796875)"/>
<path d="M0 0 C1.49894216 -0.00870598 2.99787544 -0.01907618 4.49679565 -0.03097534 C8.55081849 -0.05765792 12.60446728 -0.05892341 16.65856075 -0.05384874 C20.05281964 -0.05170186 23.447004 -0.06149542 26.84124684 -0.07105958 C34.85613585 -0.09321792 42.8708374 -0.09414395 50.88574219 -0.08203125 C59.12929345 -0.0699636 67.37216095 -0.09454959 75.61559558 -0.13717139 C82.71401884 -0.17251129 89.81222556 -0.18438896 96.91073346 -0.1778959 C101.14104392 -0.17428567 105.37086702 -0.17938476 109.60109711 -0.20732498 C113.58400211 -0.23264885 117.56584988 -0.22844034 121.54874039 -0.2025032 C123.00146227 -0.19780769 124.4542605 -0.20311075 125.90689468 -0.21974945 C139.45656285 -0.36362518 149.08459525 3.71960735 158.88378906 13.04541016 C165.35303758 20.20739341 170.38339003 28.09702845 170.41293335 37.89849854 C170.4257283 39.82034721 170.4257283 39.82034721 170.43878174 41.78102112 C170.43808276 43.19369519 170.43715973 44.60636917 170.43603516 46.01904297 C170.44202214 47.51255122 170.44882808 49.00605639 170.45639038 50.4995575 C170.47404281 54.55140597 170.47874551 58.60316993 170.48002195 62.65505314 C170.48144483 65.18907865 170.48571707 67.72308277 170.49101639 70.25710297 C170.50951593 79.10500957 170.51768732 87.95285595 170.51611328 96.80078125 C170.51491271 105.03565186 170.53599856 113.27026002 170.56760061 121.50506425 C170.59379678 128.58466515 170.60447914 135.66418052 170.60320246 142.74382949 C170.6026937 146.96784554 170.60832885 151.19162842 170.62955856 155.41559601 C170.6489968 159.39167434 170.64902766 163.36729849 170.6345253 167.34339333 C170.63244282 168.79737579 170.63710456 170.2513871 170.64924622 171.70532036 C170.7131716 179.89496051 170.34158047 186.39995056 166.14550781 193.54931641 C165.68789063 194.39623047 165.23027344 195.24314453 164.75878906 196.11572266 C157.25251732 207.63435587 147.29062578 214.21374219 133.86792755 217.12129784 C128.52492463 217.96132424 123.15062566 217.83485978 117.75390625 217.82397461 C116.43723465 217.82908554 115.12056305 217.83419647 113.76399231 217.83946228 C110.17489524 217.85277372 106.58590399 217.85343956 102.99678707 217.85089898 C99.98781986 217.84982348 96.97887356 217.85472757 93.96991086 217.8595044 C86.86257417 217.87057336 79.75529034 217.87105234 72.64794922 217.86499023 C65.34696222 217.85895805 58.0461683 217.87124818 50.74521422 217.8925603 C44.45017714 217.91025177 38.15520108 217.91616567 31.86014009 217.91292256 C28.11229079 217.91112086 24.36457912 217.91363296 20.61675262 217.9276371 C17.08715621 217.94033375 13.55785753 217.93816139 10.028265 217.92522621 C8.13789955 217.92178245 6.24752449 217.93295178 4.35719299 217.9447937 C-8.05076972 217.86960963 -18.64554309 215.81480937 -28.85449219 208.54931641 C-30.43230469 207.43556641 -30.43230469 207.43556641 -32.04199219 206.29931641 C-42.25890237 196.30944868 -46.80631358 184.67306433 -46.99493408 170.5872345 C-47.00693312 168.18114186 -47.01345068 165.77501806 -47.015625 163.36889648 C-47.0205899 162.05091064 -47.02555481 160.7329248 -47.03067017 159.375 C-47.04372795 155.77348444 -47.05022619 152.17198748 -47.05468082 148.57045197 C-47.05762247 146.31479984 -47.06172929 144.05915266 -47.066185 141.80350304 C-47.07984289 134.72991868 -47.08951772 127.65634581 -47.09338689 120.58274919 C-47.09786268 112.4473833 -47.11539542 104.31218583 -47.14438748 96.17687112 C-47.16608067 89.86831095 -47.17609524 83.55979789 -47.17742801 77.25120085 C-47.17847064 73.49272169 -47.18426189 69.73440121 -47.20224762 65.97596169 C-47.21886103 62.43574189 -47.22082041 58.89579783 -47.21210861 55.35555267 C-47.21098479 53.45661392 -47.22459939 51.55768375 -47.23886108 49.65879822 C-47.1693429 35.18983908 -43.6700556 23.16220338 -33.80371094 12.39697266 C-30.48305499 9.24933686 -26.82458818 6.80378589 -22.85449219 4.54931641 C-21.78922302 3.87131989 -20.72395386 3.19332336 -19.62640381 2.49478149 C-13.42817531 -0.56126025 -6.75740409 -0.0259872 0 0 Z " fill="#000000" transform="translate(322.8544921875,18.45068359375)"/>
<path d="M0 0 C1.28386597 -0.01286545 2.56773193 -0.0257309 3.89050293 -0.03898621 C5.30627374 -0.04307141 6.72204529 -0.0469083 8.13781738 -0.05052185 C9.63468991 -0.06142275 11.13155698 -0.07309508 12.62841797 -0.08547974 C16.69083723 -0.11594809 20.75319989 -0.13299585 24.81571007 -0.14569592 C27.35847701 -0.1537932 29.90122792 -0.16397447 32.44398499 -0.17471123 C40.41298289 -0.20742749 48.38194153 -0.23132454 56.35099745 -0.24352509 C65.52466226 -0.2577555 74.69755454 -0.3015499 83.87096357 -0.37102658 C90.97695181 -0.4229729 98.0827216 -0.44771128 105.18889666 -0.45234722 C109.42557075 -0.45573114 113.66146349 -0.47036296 117.89793396 -0.51362801 C121.89068574 -0.55368914 125.88212129 -0.55965199 129.87501526 -0.54072762 C131.33057695 -0.53947232 132.78620978 -0.54992525 134.24157715 -0.57374191 C147.27942288 -0.77471022 157.42424 3.42848513 166.93273926 12.41651917 C175.34395512 21.63613564 179.75243246 32.6850072 179.77348328 45.14289856 C179.77988075 46.8627018 179.77988075 46.8627018 179.78640747 48.61724854 C179.78595428 49.86101761 179.7855011 51.10478668 179.78503418 52.38624573 C179.7880292 53.72064304 179.79143252 55.05503949 179.79521179 56.38943481 C179.80402232 60.00327672 179.8063887 63.61709493 179.80702758 67.23094654 C179.8077399 69.49277554 179.8098777 71.75459857 179.8125248 74.01642609 C179.82176937 81.91883728 179.82586091 89.82123165 179.82507324 97.72364807 C179.8244731 105.07059857 179.83501474 112.4174755 179.85081691 119.7644074 C179.86392824 126.08735346 179.86925562 132.41027558 179.86861783 138.73323512 C179.86836385 142.50280392 179.87115974 146.27230732 179.88179588 150.04186249 C179.89153723 153.59104866 179.89151508 157.14010775 179.88427925 160.68929863 C179.88274914 162.59815976 179.89103833 164.50702104 179.89971924 166.41586304 C179.84847353 180.56134034 176.99751774 193.92986569 166.63977051 204.28761292 C154.09092986 215.20087433 141.35203745 217.59506761 125.11877441 217.56227112 C123.80035049 217.56738205 122.48192657 217.57249298 121.12355042 217.57775879 C117.53457965 217.59105298 113.94571481 217.59173824 110.35672426 217.58919549 C107.34761263 217.58811922 104.33852185 217.59302582 101.32941473 217.59780091 C94.22354061 217.60886301 87.11771936 217.60935217 80.01184082 217.60328674 C72.71024512 217.59724957 65.40884224 217.60955899 58.10727942 217.63085681 C51.81138855 217.64853787 45.5155587 217.65446396 39.21964395 217.65121907 C35.47128252 217.64941638 31.72305867 217.65194 27.97472 217.66593361 C24.44675484 217.6786139 20.91908781 217.67647292 17.39112663 217.66352272 C15.49938536 217.66007295 13.60763454 217.67125929 11.71592712 217.68309021 C-3.23043557 217.59230396 -15.18080169 213.80401025 -26.21569824 203.60011292 C-33.06443274 196.21495659 -37.58643177 188.01448703 -37.64111328 177.83836365 C-37.65824371 175.92095619 -37.65824371 175.92095619 -37.67572021 173.96481323 C-37.67821051 172.56053201 -37.68046079 171.15625034 -37.68249512 169.75196838 C-37.69176078 168.26317864 -37.70181135 166.77439361 -37.71258545 165.28561401 C-37.73875203 161.25017002 -37.75170784 157.21479246 -37.76060677 153.17927694 C-37.76648268 150.65343055 -37.77469507 148.12760203 -37.78361511 145.60176468 C-37.81094636 137.68562658 -37.83028759 129.76952966 -37.83801889 121.85334766 C-37.8469699 112.74032472 -37.88202486 103.6279033 -37.94002008 94.51506317 C-37.9833789 87.45492816 -38.00343414 80.3949616 -38.00610113 73.33469498 C-38.00818875 69.12554697 -38.01981936 64.91696508 -38.05574036 60.70795822 C-38.08891983 56.74319576 -38.09291031 52.77941826 -38.07546234 48.81456566 C-38.07393294 47.36827246 -38.08245627 45.92192392 -38.10237885 44.47576714 C-38.27770416 30.94358356 -34.17510354 21.33293743 -24.86413574 11.54933167 C-17.69480837 5.07344938 -9.80646402 0.06379601 0 0 Z " fill="#000000" transform="translate(56.3602294921875,18.712387084960938)"/>
<path d="M0 0 C1.26972656 -0.00386719 2.53945313 -0.00773437 3.84765625 -0.01171875 C5.16636719 -0.00011719 6.48507812 0.01148438 7.84375 0.0234375 C9.16246094 0.01183594 10.48117187 0.00023437 11.83984375 -0.01171875 C13.74443359 -0.00591797 13.74443359 -0.00591797 15.6875 0 C17.42290039 0.00507568 17.42290039 0.00507568 19.19335938 0.01025391 C22.77804715 0.45195056 24.54702625 1.12053847 27.34375 3.3984375 C30.34821312 7.91923668 30.75528421 11.91290784 30.63671875 17.203125 C30.63247391 17.9271048 30.62822906 18.65108459 30.62385559 19.39700317 C30.60717972 21.68954037 30.56955081 23.98116996 30.53125 26.2734375 C30.51618871 27.83592472 30.50250284 29.39842585 30.49023438 30.9609375 C30.45731293 34.77378255 30.40561002 38.58595661 30.34375 42.3984375 C31.31199707 42.38272705 32.28024414 42.3670166 33.27783203 42.35083008 C36.88956294 42.29629765 40.50125785 42.26200331 44.11328125 42.23364258 C45.67291394 42.21860881 47.23250472 42.19817615 48.79199219 42.17211914 C51.04112116 42.13549539 53.28968847 42.11865729 55.5390625 42.10546875 C56.2299295 42.08998489 56.92079651 42.07450104 57.63259888 42.05854797 C62.2846642 42.05695137 65.38803229 42.97128007 69.34375 45.3984375 C75.16506915 51.3770896 74.52581024 57.96461115 74.53125 65.8359375 C74.54349609 66.76470703 74.55574219 67.69347656 74.56835938 68.65039062 C74.59208483 79.76181086 74.59208483 79.76181086 70.94140625 84.04296875 C65.76242166 87.98321402 62.16095523 88.54233902 55.83203125 88.49609375 C55.10380661 88.4946788 54.37558197 88.49326385 53.62528992 88.49180603 C51.30223461 88.48621409 48.97927612 88.47366312 46.65625 88.4609375 C45.08007952 88.45592146 43.50390752 88.45135873 41.92773438 88.44726562 C38.06636902 88.4362473 34.20507592 88.41898824 30.34375 88.3984375 C30.35946045 89.39697754 30.3751709 90.39551758 30.39135742 91.42431641 C30.44587619 95.14786637 30.48017934 98.8713814 30.50854492 102.59521484 C30.52358176 104.20334822 30.54401672 105.81144094 30.57006836 107.41943359 C30.60667822 109.73805814 30.62352722 112.05613799 30.63671875 114.375 C30.65220261 115.08774078 30.66768646 115.80048157 30.68363953 116.53482056 C30.68520602 121.23756729 29.83722519 124.41290073 27.34375 128.3984375 C21.18318399 132.9793712 14.91188841 132.60977011 7.53125 132.6484375 C6.07235352 132.679375 6.07235352 132.679375 4.58398438 132.7109375 C-1.29805767 132.7427969 -5.48353753 132.26912164 -10.65625 129.3984375 C-15.66518523 124.25768819 -15.78252715 120.21006106 -15.75390625 113.2265625 C-15.7524913 112.5441449 -15.75107635 111.86172729 -15.74961853 111.15863037 C-15.74404084 108.98852066 -15.73149254 106.8185158 -15.71875 104.6484375 C-15.71373211 103.17317858 -15.70916971 101.69791803 -15.70507812 100.22265625 C-15.69407875 96.61454952 -15.67682953 93.00650375 -15.65625 89.3984375 C-16.62449707 89.38385498 -17.59274414 89.36927246 -18.59033203 89.35424805 C-22.20251324 89.29602183 -25.81408683 89.21879214 -29.42578125 89.13598633 C-30.98525081 89.10285083 -32.54483702 89.0747838 -34.10449219 89.05200195 C-36.35401852 89.01824469 -38.60248687 88.96592246 -40.8515625 88.91015625 C-41.5424295 88.90376633 -42.23329651 88.8973764 -42.94509888 88.89079285 C-47.551583 88.75268756 -50.80060364 87.9413231 -54.65625 85.3984375 C-57.80640891 81.55406305 -58.0409006 78.40793986 -58.0546875 73.5234375 C-58.05855469 72.20859375 -58.06242187 70.89375 -58.06640625 69.5390625 C-58.06012207 68.85908203 -58.05383789 68.17910156 -58.04736328 67.47851562 C-58.03129525 65.40427858 -58.04723732 63.33198954 -58.06640625 61.2578125 C-58.06253906 59.94296875 -58.05867188 58.628125 -58.0546875 57.2734375 C-58.05130371 56.07460938 -58.04791992 54.87578125 -58.04443359 53.640625 C-57.6049619 49.97006895 -57.04520886 48.21859215 -54.65625 45.3984375 C-49.666878 42.6073212 -45.63620996 42.03723316 -39.97265625 42.10546875 C-39.27228745 42.10971359 -38.57191864 42.11395844 -37.85032654 42.11833191 C-35.63939 42.13496594 -33.42940543 42.1725857 -31.21875 42.2109375 C-29.70899765 42.22600424 -28.19923084 42.23968914 -26.68945312 42.25195312 C-23.01141566 42.28481829 -19.33392593 42.33649168 -15.65625 42.3984375 C-15.67719727 41.46572021 -15.69814453 40.53300293 -15.71972656 39.57202148 C-15.78822396 36.08494024 -15.83820446 32.59858209 -15.87597656 29.11108398 C-15.89599363 27.60673688 -15.92321627 26.10246661 -15.95800781 24.59838867 C-16.00696945 22.42607588 -16.02931653 20.25479844 -16.046875 18.08203125 C-16.06782227 16.77806396 -16.08876953 15.47409668 -16.11035156 14.13061523 C-15.44677584 8.67680771 -13.6789597 5.05595923 -9.32226562 1.48583984 C-6.06186846 0.15600386 -3.51972765 0.01029447 0 0 Z " fill="#000000" transform="translate(377.65625,319.6015625)"/>
</svg>
