<?xml version="1.0" encoding="UTF-8"?>
<svg version="1.1" xmlns="http://www.w3.org/2000/svg" width="2133" height="2133">
<path d="M0 0 C0.89976562 -0.020625 1.79953125 -0.04125 2.7265625 -0.0625 C12.03728422 -0.11600989 19.71159288 2.36512995 27.875 6.6875 C31.77054347 8.7108115 35.63779596 10.63676986 39.75 12.1875 C51.4814687 16.72011291 62.4783857 23.08530279 73.44848633 29.1796875 C79.18723461 32.35620979 84.98219593 35.36687472 90.8671875 38.26171875 C96.08551864 40.8342828 101.23481292 43.52496992 106.375 46.25 C111.98541335 49.22323995 117.61425357 52.13652564 123.3125 54.9375 C131.02893628 58.74355953 138.60723038 62.80683398 146.1875 66.875 C146.78360077 67.19487885 147.37970154 67.51475769 147.99386597 67.84432983 C153.8896419 71.01043128 159.77657629 74.1921061 165.6484375 77.40234375 C170.47365959 80.03820215 175.32106459 82.62860862 180.1875 85.1875 C181.00581299 85.61788574 181.82412598 86.04827148 182.66723633 86.49169922 C190.37589821 90.53333851 198.1480302 94.43679873 205.96044922 98.27441406 C208.14188501 99.34642283 210.32093548 100.42318121 212.5 101.5 C213.51356567 101.9942749 213.51356567 101.9942749 214.54760742 102.49853516 C217.12374656 103.77339961 219.57326411 105.02310875 221.875 106.75390625 C224.77290243 108.9216731 228.00285511 110.37294193 231.25 111.9375 C236.43067843 114.47377031 241.47015114 117.12202309 246.4375 120.0625 C255.40238321 125.27750063 264.81935485 129.55168606 274.19091797 133.97753906 C286.65585029 139.8868739 298.76564695 146.40027693 310.87890625 152.99609375 C330.34859783 164.29260673 330.34859783 164.29260673 350.875 173.25 C350.875 173.91 350.875 174.57 350.875 175.25 C352.05707031 175.58644531 353.23914062 175.92289063 354.45703125 176.26953125 C361.55753759 178.64099213 368.00766604 182.37720222 374.5625 185.9375 C375.84798183 186.62755976 377.13378767 187.31701628 378.41992188 188.00585938 C385.9971406 192.07758913 393.4917531 196.27900233 400.94189453 200.57861328 C408.02806922 204.616565 415.43827908 207.91441194 422.875 211.25 C422.875 211.91 422.875 212.57 422.875 213.25 C424.06351563 213.58902344 425.25203125 213.92804688 426.4765625 214.27734375 C433.46668686 216.6123892 439.80413069 220.29591473 446.25 223.8125 C447.59633538 224.54001358 448.94310062 225.26673221 450.2902832 225.99267578 C452.94803278 227.42529329 455.60423611 228.86070986 458.25927734 230.29833984 C462.84170125 232.77613014 467.44796202 235.20762435 472.0625 237.625 C473.54168982 238.40099754 475.02085687 239.17703847 476.5 239.953125 C477.21414063 240.32759766 477.92828125 240.70207031 478.6640625 241.08789062 C481.00761654 242.31970569 483.3478403 243.55768024 485.6875 244.796875 C492.8993104 248.61285395 500.11684479 252.39667789 507.4375 256 C514.72275318 259.59020451 521.85861678 263.44545084 529 267.3125 C537.88645526 272.12386362 546.79564883 276.81221239 555.875 281.25 C558.50240746 282.55769899 561.12618088 283.87261933 563.75 285.1875 C564.92304687 285.77402344 566.09609375 286.36054687 567.3046875 286.96484375 C568.57699219 287.60099609 568.57699219 287.60099609 569.875 288.25 C569.875 288.91 569.875 289.57 569.875 290.25 C570.56464844 290.35054687 571.25429687 290.45109375 571.96484375 290.5546875 C575.44851307 291.38702728 578.2387404 292.752797 581.4375 294.375 C582.4433313 294.88474365 582.4433313 294.88474365 583.46948242 295.40478516 C593.64599797 300.60816692 603.68387218 306.08338619 613.74954224 311.49714661 C619.09424223 314.37053893 624.44781201 317.22661217 629.8125 320.0625 C630.56829346 320.46452637 631.32408691 320.86655273 632.1027832 321.28076172 C635.63424412 323.14303483 639.12233347 324.86202745 642.875 326.25 C642.875 326.91 642.875 327.57 642.875 328.25 C644.1125 328.62125 645.35 328.9925 646.625 329.375 C657.52179911 333.05204007 667.47485208 339.19968886 677.51831055 344.71337891 C684.92621145 348.76710317 692.4128966 352.61355009 699.99609375 356.32666016 C703.29822293 357.94940607 706.5856486 359.60155211 709.875 361.25 C711.03 361.8275 712.185 362.405 713.375 363 C714.6125 363.61875 714.6125 363.61875 715.875 364.25 C715.875 364.91 715.875 365.57 715.875 366.25 C716.40867187 366.40855469 716.94234375 366.56710937 717.4921875 366.73046875 C723.65152797 368.65925876 729.17193722 371.25029017 734.875 374.25 C736.22502823 374.94706446 737.57530996 375.64363805 738.92578125 376.33984375 C747.91438642 380.9996314 756.76928141 385.85631803 765.5625 390.875 C775.64226364 396.62224827 785.86658724 401.90021627 796.33203125 406.90234375 C810.9257838 413.99073785 825.79605309 422.29515137 837.875 433.25 C838.205 434.24 838.535 435.23 838.875 436.25 C839.535 436.25 840.195 436.25 840.875 436.25 C841.85112999 456.2064353 838.16643 475.35632908 831.59667969 494.15380859 C830.9275883 496.09725198 830.30919607 498.05794963 829.6953125 500.01953125 C826.4869883 510.23085274 822.24917952 519.91922751 817.96972656 529.71777344 C816.38854385 533.37522819 814.87798846 537.05988599 813.375 540.75 C806.98138824 556.35158382 800.22993249 571.77778704 793.25 587.125 C792.93643555 587.81456787 792.62287109 588.50413574 792.29980469 589.21459961 C788.67782893 597.17251651 785.01363304 605.10935046 781.3059845 613.0276947 C778.95610014 618.05493968 776.68569698 623.11423439 774.4375 628.1875 C771.29360388 635.24339163 767.99750965 642.19440266 764.43774414 649.05053711 C763.0795422 651.69272812 761.87206736 654.25885901 760.9375 657.08203125 C759.42693859 661.5859478 757.36743239 665.78447254 755.3125 670.0625 C754.86849854 670.99175293 754.42449707 671.92100586 753.96704102 672.87841797 C750.86864114 679.31317482 747.59976129 685.63467987 744.2097168 691.91943359 C740.11701766 699.55829411 736.48700033 707.40890718 732.81494141 715.25585938 C731.31402961 718.44013147 729.74367699 721.58676021 728.15234375 724.7265625 C726.86721338 727.26538275 725.60472008 729.81495325 724.34204102 732.36499023 C716.52891469 748.09973114 708.5796996 763.78940004 699.72265625 778.96484375 C696.18214377 785.25991985 693.05029337 791.76524594 689.875 798.25 C689.21002807 799.58417935 688.54436982 800.91802167 687.875 802.25 C687.215 802.25 686.555 802.25 685.875 802.25 C685.69517578 803.34658936 685.69517578 803.34658936 685.51171875 804.46533203 C684.87933585 807.23103729 684.00260422 809.30162708 682.6875 811.8046875 C682.24043701 812.65957764 681.79337402 813.51446777 681.33276367 814.39526367 C680.85170166 815.29607666 680.37063965 816.19688965 679.875 817.125 C679.13503784 818.52359253 679.13503784 818.52359253 678.38012695 819.95043945 C674.14452896 827.88783966 669.60370636 835.59926652 664.875 843.25 C663.74649357 845.10203463 662.62108395 846.95596295 661.5 848.8125 C661.05914063 849.53566406 660.61828125 850.25882813 660.1640625 851.00390625 C659.24581646 852.60388042 658.38552883 854.23770899 657.56640625 855.890625 C655.25101569 860.48932218 652.72236177 864.95681544 650.1875 869.4375 C649.62659668 870.42911133 649.06569336 871.42072266 648.48779297 872.44238281 C643.90407173 880.508631 639.22580825 888.51649426 634.5 896.5 C633.84684814 897.60496826 633.19369629 898.70993652 632.52075195 899.84838867 C628.43017136 906.73228266 624.20303696 913.51336262 619.875 920.25 C618.26304579 922.78680699 616.6597999 925.32894327 615.0625 927.875 C614.43093994 928.88167725 614.43093994 928.88167725 613.78662109 929.90869141 C610.76091726 934.76038671 607.86407201 939.67666338 605 944.625 C600.99913923 951.52062458 596.68983344 958.16238724 592.21777344 964.76074219 C588.39971685 970.4045014 584.83947533 976.15880797 581.3984375 982.0390625 C580.64433594 983.13347656 580.64433594 983.13347656 579.875 984.25 C579.215 984.25 578.555 984.25 577.875 984.25 C577.58625 985.013125 577.2975 985.77625 577 986.5625 C575.875 989.25 575.875 989.25 573.875 992.25 C573.215 992.25 572.555 992.25 571.875 992.25 C571.65070313 992.94738281 571.42640625 993.64476562 571.1953125 994.36328125 C569.57829672 997.89870925 567.29960156 1000.55455526 564.75 1003.4375 C563.74614092 1004.59396396 562.7435452 1005.75152572 561.7421875 1006.91015625 C561.25073242 1007.47750488 560.75927734 1008.04485352 560.25292969 1008.62939453 C558.38788673 1010.82290182 556.6330909 1013.09531781 554.875 1015.375 C547.62601068 1024.48801515 539.16678996 1032.27038652 529.875 1039.25 C528.98941406 1039.91773438 528.10382813 1040.58546875 527.19140625 1041.2734375 C496.64663515 1063.88956589 468.79230029 1072.88870825 430.9375 1072.6875 C429.76579254 1072.68512329 428.59408508 1072.68274658 427.38687134 1072.68029785 C410.23534956 1072.62577459 393.65737091 1072.07647183 376.875 1068.25 C376.05950684 1068.06856445 375.24401367 1067.88712891 374.40380859 1067.70019531 C369.85867169 1066.66802151 365.3701567 1065.48298886 360.875 1064.25 C359.23186668 1063.88351088 357.58634277 1063.52738071 355.9375 1063.1875 C353.17831119 1062.59056853 350.53872201 1061.84846607 347.8671875 1060.9375 C344.28236694 1059.7249494 340.69299238 1058.52871424 337.09765625 1057.34765625 C335.04425696 1056.66931284 332.99087175 1055.99092679 330.9375 1055.3125 C329.40706055 1054.81073242 329.40706055 1054.81073242 327.84570312 1054.29882812 C322.21636221 1052.43435593 316.68482207 1050.43643195 311.19506836 1048.1940918 C307.69674451 1046.77053941 304.16287546 1045.44645941 300.625 1044.125 C299.95726562 1043.87363281 299.28953125 1043.62226563 298.6015625 1043.36328125 C294.71799673 1041.90884779 290.81760473 1040.53563198 286.875 1039.25 C286.875 1038.59 286.875 1037.93 286.875 1037.25 C286.05 1037.146875 285.225 1037.04375 284.375 1036.9375 C280.28210988 1036.13353944 276.74959775 1034.78647842 272.875 1033.25 C272.875 1032.59 272.875 1031.93 272.875 1031.25 C271.92625 1031.188125 270.9775 1031.12625 270 1031.0625 C264.75949443 1030.29153099 260.50425569 1027.70509338 255.875 1025.25 C253.44079586 1024.01366607 251.00414305 1022.78392694 248.5625 1021.5625 C247.8907373 1021.22516846 247.21897461 1020.88783691 246.52685547 1020.5402832 C240.91129495 1017.73379596 235.24167015 1015.04985056 229.5625 1012.375 C221.61358034 1008.63077469 213.80911436 1004.67245325 206.09057617 1000.47314453 C202.08947269 998.31690353 198.26374424 996.5297606 193.875 995.25 C193.875 994.59 193.875 993.93 193.875 993.25 C192.67875 992.92 191.4825 992.59 190.25 992.25 C179.70598927 988.68535814 168.94570301 982.85796304 162.875 973.25 C158.613182 963.89727312 159.14572517 955.69730425 162.55078125 946.2109375 C165.75323039 939.05029901 170.90217194 933.94610671 176.8515625 928.98828125 C178.91876014 927.21240683 180.79409607 925.33409346 182.6875 923.375 C186.53270612 919.46982965 190.6944072 916.08827988 194.9609375 912.65625 C199.56756273 908.85238788 203.92403872 904.7876483 208.29394531 900.71777344 C209.93681857 899.19261068 211.58834232 897.67731659 213.2421875 896.1640625 C217.94033286 891.85940118 222.61825159 887.56943851 227.0625 883 C229.76294677 880.24881414 232.5757135 877.85824376 235.625 875.5 C241.90020161 870.60204511 247.32865243 864.93755586 252.875 859.25 C254.53927031 857.58094042 256.2054819 855.91381035 257.875 854.25 C258.6175 853.5075 259.36 852.765 260.125 852 C276.875 835.25 276.875 835.25 278.91796875 833.2421875 C279.64628906 832.52289062 280.37460938 831.80359375 281.125 831.0625 C282.15367187 830.05123047 282.15367187 830.05123047 283.203125 829.01953125 C284.94949111 827.34201005 284.94949111 827.34201005 285.875 825.25 C286.535 825.25 287.195 825.25 287.875 825.25 C288.14666992 824.65993164 288.41833984 824.06986328 288.69824219 823.46191406 C289.85337605 821.29064585 291.0719304 819.68983184 292.703125 817.859375 C293.25315186 817.23554932 293.80317871 816.61172363 294.36987305 815.96899414 C294.94906494 815.31922607 295.52825684 814.66945801 296.125 814 C299.76556445 809.87422663 303.34410174 805.78294347 306.5625 801.3125 C307.325625 800.301875 308.08875 799.29125 308.875 798.25 C309.535 798.25 310.195 798.25 310.875 798.25 C311.12507813 797.68667969 311.37515625 797.12335937 311.6328125 796.54296875 C313.06745089 793.89475261 314.78906194 791.85026107 316.75 789.5625 C322.43404991 782.72330446 327.47410653 775.46837092 332.54150391 768.16650391 C334.24065568 765.72447874 335.96565655 763.30105808 337.6875 760.875 C341.25100022 755.77075935 344.57687615 750.52842284 347.875 745.25 C348.50277344 744.26386719 349.13054688 743.27773437 349.77734375 742.26171875 C353.63698202 736.12451175 357.22392365 729.90078343 360.625 723.5 C360.98964355 722.81534668 361.35428711 722.13069336 361.72998047 721.42529297 C366.07986019 713.12966422 369.55998061 704.7041073 372.5 695.8125 C372.7990625 694.93529297 373.098125 694.05808594 373.40625 693.15429688 C376.2871112 684.5053397 378.42366224 676.22099332 377.75 667.0625 C377.70214355 666.34344482 377.65428711 665.62438965 377.60498047 664.88354492 C376.80042094 655.09688284 374.31779891 646.02135442 369.875 637.25 C369.875 636.59 369.875 635.93 369.875 635.25 C369.215 635.25 368.555 635.25 367.875 635.25 C366.54296875 633.23828125 366.54296875 633.23828125 365.0625 630.5625 C359.62376068 621.25766887 352.39050505 616.12649692 342.24609375 612.828125 C325.31170998 608.6991484 305.36899261 608.97387424 290.171875 617.82421875 C287.60921833 619.51038395 285.24682956 621.3054918 282.875 623.25 C282.04355469 623.930625 281.21210937 624.61125 280.35546875 625.3125 C269.74367684 634.41747925 269.74367684 634.41747925 262.875 646.25 C262.215 646.25 261.555 646.25 260.875 646.25 C260.65972656 646.91 260.44445313 647.57 260.22265625 648.25 C258.40527906 652.29563966 255.908044 655.66843031 253.3125 659.25 C252.21561632 660.78217314 251.11926613 662.31472835 250.0234375 663.84765625 C249.48428711 664.59934082 248.94513672 665.35102539 248.38964844 666.12548828 C246.37115282 668.95671796 244.4031957 671.81933807 242.4375 674.6875 C237.19660124 682.28203874 231.77564331 689.74531803 226.35400391 697.21142578 C225.07006227 698.98113735 223.78973295 700.75335032 222.51171875 702.52734375 C214.01582835 714.28961532 204.91440786 725.52549223 195.5 736.5625 C191.61182126 741.12157214 187.86375133 745.76864088 184.1875 750.5 C174.85947503 762.47523418 174.85947503 762.47523418 170.875 766.25 C170.215 766.25 169.555 766.25 168.875 766.25 C168.6275 766.81203125 168.38 767.3740625 168.125 767.953125 C166.66225133 770.64092569 164.90695127 772.71405482 162.875 775 C162.17375 775.79921875 161.4725 776.5984375 160.75 777.421875 C158.875 779.25 158.875 779.25 156.875 779.25 C156.61847656 779.83523438 156.36195313 780.42046875 156.09765625 781.0234375 C154.76937838 783.44234608 153.30975199 784.98198872 151.3125 786.875 C148.73484611 789.29521959 148.73484611 789.29521959 146.875 792.25 C146.215 792.25 145.555 792.25 144.875 792.25 C144.50090248 793.11109123 144.50090248 793.11109123 144.11924744 793.98957825 C142.69380373 796.57917888 141.05482559 798.32427466 138.96704102 800.41674805 C138.1618251 801.22826828 137.35660919 802.03978851 136.5269928 802.87590027 C135.21618996 804.18063042 135.21618996 804.18063042 133.87890625 805.51171875 C132.97559067 806.41694778 132.07227509 807.32217682 131.1415863 808.25483704 C129.22563861 810.17373237 127.30612593 812.08896954 125.3840332 814.00170898 C122.95021226 816.42424872 120.52533166 818.85550491 118.10318089 821.28970623 C115.76250272 823.63947359 113.41409519 825.98145586 111.06640625 828.32421875 C110.21075577 829.18391769 109.35510529 830.04361664 108.473526 830.92936707 C103.35361456 836.01055714 98.0547467 840.6968977 92.41123962 845.19075012 C89.81745999 847.29671848 87.34073806 849.49613167 84.875 851.75 C80.56431979 855.67811588 76.10056748 859.36985465 71.5625 863.03125 C68.1524567 865.84651831 64.89367876 868.80952586 61.65234375 871.81640625 C59.875 873.25 59.875 873.25 57.875 873.25 C57.875 873.91 57.875 874.57 57.875 875.25 C55.55245076 876.96575709 53.2335475 878.55964789 50.8125 880.125 C50.15572266 880.55941406 49.49894531 880.99382813 48.82226562 881.44140625 C43.18885205 885.13781358 37.46497952 888.66151937 31.3125 891.4375 C30.60996094 891.76105469 29.90742187 892.08460938 29.18359375 892.41796875 C19.15735502 896.03148626 3.96624568 896.68718807 -5.890625 892.5234375 C-10.16143072 890.39946154 -14.14036705 887.86136872 -18.125 885.25 C-19.31669214 884.52138908 -20.51188877 883.79847117 -21.7109375 883.08203125 C-23.89399738 881.76659773 -26.0653769 880.43151812 -28.22265625 879.07421875 C-30.79076461 877.46007796 -33.38352468 875.90879588 -36 874.375 C-40.95736969 871.41669972 -45.73657582 868.21120073 -50.52685547 864.99267578 C-55.04677625 861.95775795 -59.61628178 859.01564351 -64.22265625 856.11328125 C-68.52614851 853.35047397 -72.76609577 850.49312867 -77 847.625 C-79.96178909 845.63160904 -82.8686639 843.72718505 -86.125 842.25 C-86.125 841.59 -86.125 840.93 -86.125 840.25 C-86.929375 840.023125 -87.73375 839.79625 -88.5625 839.5625 C-93.03785739 837.91368412 -97.01221318 835.64455588 -101.125 833.25 C-101.125 832.59 -101.125 831.93 -101.125 831.25 C-101.84171875 830.99089844 -102.5584375 830.73179687 -103.296875 830.46484375 C-106.27857694 829.1840298 -108.70147308 827.64959493 -111.375 825.8125 C-118.52628518 820.96297983 -125.77629132 816.27586434 -133.03955078 811.59619141 C-134.99669692 810.33282173 -136.95013319 809.06394724 -138.90234375 807.79296875 C-144.29980034 804.28789739 -149.7171858 800.87352081 -155.3125 797.6875 C-160.39891934 794.7731928 -165.07931799 791.48698236 -169.75 787.94921875 C-171.82602078 786.46390783 -173.80882068 785.30622066 -176.125 784.25 C-176.125 783.59 -176.125 782.93 -176.125 782.25 C-176.8569458 781.9813916 -177.5888916 781.7127832 -178.34301758 781.43603516 C-181.0599194 780.27774564 -183.22469258 778.96666169 -185.63671875 777.2734375 C-186.47235352 776.68900879 -187.30798828 776.10458008 -188.16894531 775.50244141 C-189.04131836 774.88288574 -189.91369141 774.26333008 -190.8125 773.625 C-191.70936523 772.99126465 -192.60623047 772.3575293 -193.53027344 771.70458984 C-204.56127376 763.86571785 -204.56127376 763.86571785 -208.89135742 760.14013672 C-211.06231031 758.24873285 -211.06231031 758.24873285 -213.27246094 756.72607422 C-217.07397665 753.68148174 -218.90703525 751.48485793 -219.76855469 746.60400391 C-220.00991337 742.31080565 -219.82467794 738.04119204 -219.625 733.75 C-219.58481179 732.24488663 -219.54832037 730.73966977 -219.515625 729.234375 C-219.42806702 725.57074315 -219.29037017 721.91104105 -219.125 718.25 C-218.0922998 717.73872559 -217.05959961 717.22745117 -215.99560547 716.70068359 C-208.50183132 712.98754354 -201.06988123 709.18019947 -193.6875 705.25 C-186.9631164 701.675821 -180.17039938 698.33257251 -173.25366211 695.1484375 C-168.6504841 693.01437858 -164.19182231 690.69996307 -159.75 688.25 C-154.30396123 685.25373646 -148.76639542 682.81295343 -143 680.5 C-121.78514516 671.8870023 -102.79686025 658.74134009 -84.68359375 644.9140625 C-81.57935115 642.55993576 -78.38294512 640.38788759 -75.125 638.25 C-67.63027276 633.07242956 -60.74043173 627.51010048 -54.125 621.25 C-52.85462891 620.07630859 -52.85462891 620.07630859 -51.55859375 618.87890625 C-40.07959764 607.92566568 -31.5408142 594.47403869 -29.6875 578.47265625 C-29.37130132 560.58766813 -33.93193475 542.514203 -45.65014648 528.71557617 C-48.30036042 526.08203301 -51.4175447 524.38523409 -54.6875 522.625 C-55.39060303 522.23892578 -56.09370605 521.85285156 -56.81811523 521.45507812 C-71.24804911 513.73639854 -90.51996064 509.80032372 -106.734375 514.30078125 C-122.34400215 520.49872144 -135.87635038 529.6993912 -148.8203125 540.265625 C-176.16420443 562.58374382 -176.16420443 562.58374382 -188.20703125 568.3046875 C-190.18265647 569.27841724 -192.04901074 570.36769826 -193.9375 571.5 C-197.125 573.25 -197.125 573.25 -200.125 573.25 C-200.125 573.91 -200.125 574.57 -200.125 575.25 C-210.36010355 580.16973315 -220.5768584 585.03074336 -231.125 589.25 C-232.25679687 589.71921875 -233.38859375 590.1884375 -234.5546875 590.671875 C-271.71720102 605.91400528 -271.71720102 605.91400528 -285.125 605.25 C-285.125 605.91 -285.125 606.57 -285.125 607.25 C-285.78918945 607.38575439 -286.45337891 607.52150879 -287.13769531 607.66137695 C-302.77484058 610.83801353 -302.77484058 610.83801353 -318.28515625 614.5703125 C-322.5377356 615.58812379 -326.83573269 616.34694385 -331.13696289 617.12548828 C-335.31090864 617.88782103 -339.43509108 618.75942186 -343.5625 619.75 C-349.52489751 621.17318534 -355.52114497 622.24742005 -361.56616211 623.24804688 C-365.4619431 623.8621363 -365.4619431 623.8621363 -369.125 625.25 C-374.37492732 625.70515065 -378.4641063 624.40083661 -383.3125 622.625 C-384.42709595 622.22547119 -384.42709595 622.22547119 -385.56420898 621.81787109 C-391.74884604 619.53301546 -397.49010912 616.68205017 -403.125 613.25 C-403.125 612.59 -403.125 611.93 -403.125 611.25 C-403.805625 611.04375 -404.48625 610.8375 -405.1875 610.625 C-409.12441014 608.782191 -411.91696529 606.14391464 -415.125 603.25 C-415.74375 602.72277344 -416.3625 602.19554687 -417 601.65234375 C-424.78144292 595.01615352 -432.01759263 587.8089149 -438.5546875 579.94140625 C-440.12187061 578.14471447 -440.12187061 578.14471447 -442.3203125 576.65234375 C-443.21363281 575.95818359 -443.21363281 575.95818359 -444.125 575.25 C-444.125 574.59 -444.125 573.93 -444.125 573.25 C-444.723125 572.96125 -445.32125 572.6725 -445.9375 572.375 C-448.125 571.25 -448.125 571.25 -451.125 569.25 C-451.125 568.59 -451.125 567.93 -451.125 567.25 C-451.68832031 566.99476563 -452.25164062 566.73953125 -452.83203125 566.4765625 C-461.922945 561.61362056 -469.4501847 553.17467659 -476.85742188 546.12548828 C-481.56161974 541.6673916 -486.34505458 537.47024589 -491.41015625 533.42578125 C-501.0173205 525.72622659 -510.07669499 517.49037382 -518.98071289 508.9934082 C-523.89906774 504.32530233 -528.93994808 499.98975764 -534.31640625 495.8515625 C-535.21166016 495.05878906 -535.21166016 495.05878906 -536.125 494.25 C-536.125 493.59 -536.125 492.93 -536.125 492.25 C-536.66769531 492.02441406 -537.21039062 491.79882812 -537.76953125 491.56640625 C-540.84472998 489.84776285 -543.26366956 487.58556344 -545.8125 485.1875 C-546.36631348 484.6709082 -546.92012695 484.15431641 -547.49072266 483.62207031 C-552.4082631 478.99744952 -557.21591328 474.26210054 -562 469.5 C-563.05127075 468.45573853 -563.05127075 468.45573853 -564.1237793 467.39038086 C-568.10990134 463.39195158 -571.91660416 459.29403322 -575.58642578 455.00292969 C-577.09930255 453.22422814 -577.09930255 453.22422814 -578.82373047 451.64550781 C-580.125 450.25 -580.125 450.25 -580.125 448.25 C-580.785 448.25 -581.445 448.25 -582.125 448.25 C-583.68437487 446.3022866 -585.10318053 444.3726739 -586.5 442.3125 C-586.90484619 441.72001465 -587.30969238 441.1275293 -587.72680664 440.51708984 C-592.2321979 433.78862569 -595.08987622 427.09976314 -597.125 419.25 C-597.45024658 418.17322998 -597.77549316 417.09645996 -598.1105957 415.98706055 C-601.41410119 403.81696222 -601.47209529 391.09510761 -601.44067383 378.56958008 C-601.43751538 375.95025862 -601.46108003 373.33207369 -601.48632812 370.71289062 C-601.60381027 338.60229522 -591.77795248 309.45673069 -569.57177734 285.68798828 C-552.99866625 269.21555758 -531.19316156 257.29987055 -509.125 250.25 C-507.62441941 249.73084179 -506.12428996 249.21037376 -504.625 248.6875 C-492.25976634 244.65277884 -479.84825486 241.41708201 -467.13769531 238.69091797 C-459.81929582 237.0876878 -452.59599774 235.11517718 -445.37890625 233.11328125 C-442.89112451 232.45325752 -440.40495422 231.82917145 -437.90234375 231.23046875 C-422.11994937 227.43681246 -406.69430195 222.61075308 -391.23046875 217.6953125 C-385.20776346 215.78544149 -379.25584063 213.96053865 -373.05859375 212.70703125 C-370.34182505 212.06488592 -367.81462612 211.06060755 -365.22265625 210.03515625 C-362.13628714 208.87992312 -358.98142257 207.99303884 -355.8125 207.09375 C-352.19427875 205.95779682 -348.66802223 204.59781637 -345.125 203.25 C-343.26728313 202.55373678 -341.40918382 201.85849344 -339.55078125 201.1640625 C-310.84996792 190.75446856 -310.84996792 190.75446856 -283.0625 178.1875 C-279.86659021 176.56748261 -276.64835036 175.25119092 -273.27734375 174.04296875 C-269.91793953 172.80529351 -266.62568607 171.40334879 -263.32421875 170.01953125 C-261.125 169.25 -261.125 169.25 -258.125 169.25 C-258.125 168.59 -258.125 167.93 -258.125 167.25 C-257.45597656 166.99347656 -256.78695313 166.73695313 -256.09765625 166.47265625 C-249.02782898 163.65421504 -242.37586011 160.3646654 -235.68334961 156.75561523 C-230.91946811 154.18842121 -226.11326282 151.74747208 -221.25 149.375 C-214.24433253 145.93617299 -207.52358273 142.07264516 -200.79638672 138.12133789 C-195.99201002 135.30581654 -191.16552757 132.64922125 -186.140625 130.2421875 C-184.0762844 129.22601984 -182.10673391 128.10559519 -180.125 126.9375 C-177.125 125.25 -177.125 125.25 -175.125 125.25 C-175.125 124.59 -175.125 123.93 -175.125 123.25 C-173.990625 122.651875 -172.85625 122.05375 -171.6875 121.4375 C-160.37366609 115.14807737 -149.68043999 107.7077373 -139.08984375 100.28515625 C-136.37272396 98.42004504 -133.61711897 96.66694558 -130.8125 94.9375 C-123.24572705 90.17935456 -116.21640476 84.67878492 -109.125 79.25 C-108.4964209 78.76998535 -107.8678418 78.2899707 -107.22021484 77.79541016 C-100.22674126 72.47882083 -100.22674126 72.47882083 -93.38671875 66.96875 C-91.125 65.25 -91.125 65.25 -89.125 65.25 C-88.795 64.26 -88.465 63.27 -88.125 62.25 C-85.90234375 60.453125 -85.90234375 60.453125 -83.0625 58.5 C-78.66165286 55.40565435 -74.61817135 52.16463776 -70.68359375 48.5 C-69.125 47.25 -69.125 47.25 -67.125 47.25 C-67.125 46.59 -67.125 45.93 -67.125 45.25 C-65.63018943 43.94432873 -64.075184 42.70748975 -62.5 41.5 C-57.66199735 37.64208304 -53.27338448 33.53685012 -48.9375 29.125 C-44.72559244 24.83945769 -40.5094301 20.68616824 -35.8984375 16.82421875 C-33.91162537 15.06059477 -32.17254226 13.14278577 -30.375 11.1875 C-21.81692494 2.45962186 -11.69492628 0.06533478 0 0 Z " fill="#000000" transform="translate(847.125,1006.75)"/>
<path d="M0 0 C2.91435512 0.00917434 5.82790777 0.00228553 8.7421875 -0.02050781 C26.37337628 -0.15756815 43.36464584 0.42772541 60.63183594 4.44604492 C62.42572754 4.86309692 62.42572754 4.86309692 64.25585938 5.28857422 C66.90763466 5.96285414 69.51713482 6.70418828 72.13183594 7.50854492 C72.97101562 7.7515332 73.81019531 7.99452148 74.67480469 8.24487305 C79.50289258 9.67359293 84.03203415 11.40474532 88.63183594 13.44604492 C90.54552915 14.16237271 92.46225192 14.87065616 94.38183594 15.57104492 C109.64115738 21.43732868 123.87307549 29.02286412 137.84863281 37.46557617 C139.77191615 38.59272743 139.77191615 38.59272743 142.63183594 39.44604492 C142.63183594 40.10604492 142.63183594 40.76604492 142.63183594 41.44604492 C143.63923828 41.77862305 143.63923828 41.77862305 144.66699219 42.11791992 C160.54718235 49.23157559 174.06317054 64.54038663 184.62402344 77.94604492 C186.53450795 80.32485832 188.54603771 82.53369348 190.63183594 84.75854492 C195.32289767 89.97291235 198.94020032 95.80593734 202.59765625 101.76538086 C203.55155914 103.31558565 204.52445183 104.85406246 205.49902344 106.39135742 C206.03785156 107.2550293 206.57667969 108.11870117 207.13183594 109.00854492 C207.82792969 110.12422852 207.82792969 110.12422852 208.53808594 111.26245117 C209.73480675 113.6516188 210.22491291 115.81491763 210.63183594 118.44604492 C211.29183594 118.44604492 211.95183594 118.44604492 212.63183594 118.44604492 C218.44588623 130.21916717 223.61549306 142.01259945 227.92236328 154.42016602 C228.51781199 156.1204528 229.14356876 157.81008361 229.77636719 159.49682617 C232.21696287 166.21575692 233.77841292 173.10214613 235.31933594 180.07104492 C235.53412598 181.03751953 235.74891602 182.00399414 235.97021484 182.99975586 C236.17179199 183.94367188 236.37336914 184.88758789 236.58105469 185.86010742 C236.75983154 186.69493652 236.9386084 187.52976563 237.12280273 188.38989258 C238.60290938 197.27621152 238.80370725 206.10380813 238.83496094 215.09838867 C238.84066101 216.39313614 238.84636108 217.68788361 238.85223389 219.02186584 C238.86267193 221.75416446 238.86856015 224.48643432 238.87207031 227.21875 C238.87643674 229.97930246 238.89027086 232.73953918 238.91308594 235.5 C239.19707156 270.56087917 232.89842529 303.95469055 216.65600586 335.40185547 C215.62202783 337.4656214 214.6699611 339.54951431 213.73730469 341.66088867 C213.21293823 342.84726929 213.21293823 342.84726929 212.67797852 344.05761719 C211.72502759 346.23328088 210.78175204 348.41276107 209.84277344 350.59448242 C205.64765292 360.29078379 201.0065392 369.65038017 196.01855469 378.96166992 C193.89762755 382.92208213 191.87337239 386.91900874 189.88183594 390.94604492 C186.36163898 398.04387795 182.55392549 404.96422696 178.72558594 411.89916992 C175.20560888 418.34548558 171.97702368 424.79744721 169.13183594 431.57104492 C166.49999451 437.81417446 163.3270666 443.39961306 159.66308594 449.11401367 C157.05947561 453.38493599 154.88802593 457.80696599 152.70019531 462.30029297 C150.36685608 467.06041827 147.84431909 471.66825258 145.19433594 476.25854492 C141.94576319 481.91128353 139.0512039 487.65220212 136.31933594 493.57104492 C132.55363584 501.72309137 128.36536749 509.5831882 124.0168457 517.43774414 C120.96349773 522.96443623 118.03428719 528.52587001 115.25683594 534.19604492 C112.77385012 539.26296623 110.09117599 544.11395006 107.12011719 548.91088867 C104.68194613 553.06409869 102.6177941 557.39882298 100.49511719 561.71948242 C98.26935394 566.21869532 95.8841136 570.63100493 93.47216797 575.03271484 C91.7479553 578.21454148 90.18720834 581.41159075 88.75292969 584.73510742 C86.44788581 590.00625383 83.67910535 594.98589229 80.88183594 600.00854492 C76.89861886 607.22525394 73.05532828 614.47549836 69.4362793 621.88085938 C67.27640262 626.26219436 64.91992652 630.48614885 62.44433594 634.69604492 C58.91870494 640.74594426 56.12259953 646.9077905 53.63183594 653.44604492 C52.97183594 653.44604492 52.31183594 653.44604492 51.63183594 653.44604492 C51.52742188 654.66807617 51.52742188 654.66807617 51.42089844 655.91479492 C50.40127787 660.47784933 48.3534961 663.9380059 46.00683594 667.94604492 C45.08646476 669.55665361 44.16851411 671.16864779 43.25292969 672.78198242 C42.80288574 673.57443359 42.3528418 674.36688477 41.88916016 675.18334961 C40.17588403 678.26658129 38.61767939 681.4014948 37.06933594 684.57104492 C34.61390058 689.5799025 31.97234288 694.42571904 29.19433594 699.25854492 C24.06320473 708.21300133 18.90247129 717.63413886 15.63183594 727.44604492 C14.97183594 727.44604492 14.31183594 727.44604492 13.63183594 727.44604492 C13.28572266 728.64100586 13.28572266 728.64100586 12.93261719 729.86010742 C11.28137387 734.4121836 9.09644701 738.55523448 6.81933594 742.82104492 C6.1802832 744.03920898 6.1802832 744.03920898 5.52832031 745.28198242 C3.15572821 749.76155118 0.6554098 754.1071035 -2.06665039 758.38256836 C-3.50485689 760.6627637 -4.89082862 762.96982809 -6.27050781 765.28588867 C-6.76873047 766.1218457 -7.26695312 766.95780273 -7.78027344 767.8190918 C-8.7944636 769.52412596 -9.80749124 771.22985218 -10.81933594 772.9362793 C-13.76228516 777.86904194 -16.82657852 782.68332803 -20.0402832 787.44384766 C-22.21679428 790.72562138 -24.13204748 794.1500003 -26.07128906 797.57495117 C-26.49925781 798.19241211 -26.92722656 798.80987305 -27.36816406 799.44604492 C-28.02816406 799.44604492 -28.68816406 799.44604492 -29.36816406 799.44604492 C-29.51705078 800.27749023 -29.51705078 800.27749023 -29.66894531 801.12573242 C-30.53207463 803.98997159 -31.90744952 806.07507322 -33.55566406 808.57104492 C-36.00238237 812.33445081 -38.41784223 816.10616723 -40.74316406 819.94604492 C-41.22527344 820.74010742 -41.70738281 821.53416992 -42.20410156 822.35229492 C-45.71635795 828.66964199 -44.76003821 834.7244813 -42.86816406 841.38354492 C-39.59748747 851.35680525 -34.78181576 860.66328277 -30.07128906 870.01635742 C-29.51779785 871.11596802 -29.51779785 871.11596802 -28.953125 872.23779297 C-28.24267678 873.64286259 -27.52735821 875.0454827 -26.80664062 876.4453125 C-24.36816406 881.23079206 -24.36816406 881.23079206 -24.36816406 883.44604492 C-23.70816406 883.44604492 -23.04816406 883.44604492 -22.36816406 883.44604492 C-22.05363281 884.28006836 -21.73910156 885.1140918 -21.41503906 885.97338867 C-18.55227432 893.52593121 -18.55227432 893.52593121 -15.36816406 900.94604492 C-5.96764862 921.76949745 0.96451938 944.11294027 4.92089844 966.59448242 C5.41624048 969.27803877 5.97379803 971.86183625 6.62011719 974.50463867 C8.07790578 980.96685843 8.57362977 987.54880489 9.19433594 994.13354492 C9.32001953 995.40649414 9.44570312 996.67944336 9.57519531 997.9909668 C11.74567407 1020.3434889 12.08734004 1041.89266914 10.25683594 1064.25854492 C10.19371216 1065.03320099 10.13058838 1065.80785706 10.06555176 1066.60598755 C7.61358203 1096.26798843 7.61358203 1096.26798843 5.12304688 1106.38305664 C4.34673381 1109.64341716 3.81199596 1112.94319792 3.23803711 1116.24414062 C1.46181008 1126.44820897 -0.6357622 1136.45131515 -3.36816406 1146.44604492 C-3.63564453 1147.43137207 -3.903125 1148.41669922 -4.17871094 1149.43188477 C-5.08878519 1152.77197674 -6.00769573 1156.10949388 -6.93066406 1159.44604492 C-7.37019409 1161.04089722 -7.37019409 1161.04089722 -7.81860352 1162.66796875 C-9.42124466 1168.3876852 -11.24235656 1173.90203558 -13.36816406 1179.44604492 C-13.87669794 1181.22959852 -14.35976013 1183.02081165 -14.80566406 1184.82104492 C-16.01981893 1189.43483342 -17.61614436 1193.74244594 -19.45019531 1198.14135742 C-20.66715975 1201.19671494 -21.5385549 1204.26587648 -22.36816406 1207.44604492 C-23.02816406 1207.44604492 -23.68816406 1207.44604492 -24.36816406 1207.44604492 C-24.47644531 1208.41026367 -24.58472656 1209.37448242 -24.69628906 1210.36791992 C-25.35674947 1214.96343118 -26.70070338 1219.28459623 -28.11816406 1223.69604492 C-28.38693359 1224.53651367 -28.65570312 1225.37698242 -28.93261719 1226.24291992 C-30.98861795 1232.5421563 -33.35394735 1238.53818017 -36.36816406 1244.44604492 C-37.04298828 1245.87883789 -37.04298828 1245.87883789 -37.73144531 1247.34057617 C-41.46990649 1254.86788209 -45.57743154 1258.74358042 -52.80566406 1262.82104492 C-70.18364038 1267.05957573 -89.43734006 1257.42046229 -104.36816406 1249.44604492 C-104.36816406 1248.78604492 -104.36816406 1248.12604492 -104.36816406 1247.44604492 C-105.53992187 1247.11475586 -106.71167969 1246.7834668 -107.91894531 1246.44213867 C-115.20016523 1244.00843531 -121.82743403 1240.15082039 -128.55566406 1236.50854492 C-129.98771777 1235.7404525 -131.4200942 1234.97296147 -132.8527832 1234.20605469 C-141.92656048 1229.34076836 -150.9491865 1224.38415458 -159.96777344 1219.41748047 C-165.92168247 1216.16532154 -171.96204426 1213.20127086 -178.12548828 1210.37036133 C-193.0121039 1203.50313912 -207.31366626 1195.34545541 -221.71191406 1187.52416992 C-223.11413208 1186.76257568 -223.11413208 1186.76257568 -224.54467773 1185.9855957 C-226.45889414 1184.9418388 -228.37044135 1183.89317448 -230.27954102 1182.84008789 C-235.30705231 1180.07188615 -240.32497463 1177.43329176 -245.55566406 1175.07104492 C-247.21662109 1174.31694336 -247.21662109 1174.31694336 -248.91113281 1173.54760742 C-249.72195313 1173.1840918 -250.53277344 1172.82057617 -251.36816406 1172.44604492 C-251.36816406 1171.78604492 -251.36816406 1171.12604492 -251.36816406 1170.44604492 C-252.5734375 1170.09799805 -253.77871094 1169.74995117 -255.02050781 1169.39135742 C-261.71175464 1167.15614897 -267.76206764 1163.69675103 -273.93066406 1160.32104492 C-275.18786864 1159.64010335 -276.44535793 1158.95968719 -277.703125 1158.27978516 C-284.83827111 1154.41414808 -291.92567234 1150.46817649 -298.97583008 1146.44970703 C-306.5545663 1142.15906737 -314.38555725 1138.37062781 -322.20703125 1134.54711914 C-333.60789619 1128.96358707 -344.76641333 1122.95968138 -355.93066406 1116.91870117 C-362.26505771 1113.49381822 -368.62999349 1110.13030452 -375.00878906 1106.7890625 C-379.41787352 1104.4780509 -383.80645434 1102.13491847 -388.18066406 1099.75854492 C-396.07545293 1095.49216912 -404.12018473 1091.52835858 -412.17675781 1087.57885742 C-420.17901562 1083.63814741 -428.00771328 1079.46655302 -435.78369141 1075.09619141 C-442.53809361 1071.31410621 -449.41411363 1067.84856246 -456.36816406 1064.44604492 C-458.66084429 1063.30224096 -460.95256877 1062.1565185 -463.24316406 1061.00854492 C-464.72429687 1060.26797852 -464.72429687 1060.26797852 -466.23535156 1059.51245117 C-466.93917969 1059.16053711 -467.64300781 1058.80862305 -468.36816406 1058.44604492 C-468.36816406 1057.78604492 -468.36816406 1057.12604492 -468.36816406 1056.44604492 C-469.60566406 1056.07479492 -470.84316406 1055.70354492 -472.11816406 1055.32104492 C-479.72101282 1052.786762 -486.71431189 1048.93639445 -493.69238281 1045.03979492 C-498.14822488 1042.55357095 -502.65560495 1040.17823997 -507.18066406 1037.82104492 C-514.1050559 1034.19920388 -520.97039231 1030.48319871 -527.80566406 1026.69604492 C-534.91148459 1022.76506466 -542.06506516 1019.00021972 -549.36816406 1015.44604492 C-561.39140953 1009.573903 -573.16534271 1003.28365672 -584.93457031 996.91870117 C-597.96954878 989.87198526 -611.08468281 983.01265274 -624.36816406 976.44604492 C-633.45641672 971.95075516 -642.47954038 967.36658301 -651.41113281 962.56713867 C-658.1893327 958.92575902 -665.00833565 955.36113516 -671.82080078 951.78442383 C-674.44309875 950.40667441 -677.06387554 949.02605984 -679.68457031 947.64526367 C-691.49431722 941.43073722 -703.36796861 935.3707781 -715.34863281 929.49291992 C-722.07513578 926.17874312 -728.68046858 922.74907076 -735.18066406 919.00854492 C-743.98472852 913.94443641 -753.14575701 909.68634729 -762.36816406 905.44604492 C-762.36816406 904.78604492 -762.36816406 904.12604492 -762.36816406 903.44604492 C-763.29048828 903.13860352 -763.29048828 903.13860352 -764.23144531 902.82495117 C-767.61035156 901.69864909 -770.98925781 900.57234701 -774.36816406 899.44604492 C-774.36816406 898.78604492 -774.36816406 898.12604492 -774.36816406 897.44604492 C-775.31691406 897.23077148 -776.26566406 897.01549805 -777.24316406 896.79370117 C-782.3852735 895.31844237 -786.78405446 892.58145614 -791.36816406 889.88354492 C-792.29153564 889.34777832 -793.21490723 888.81201172 -794.16625977 888.26000977 C-800.85750112 884.36631195 -807.5182232 880.42014312 -814.13378906 876.39916992 C-816.15245589 875.18016822 -818.18213798 873.97901071 -820.22753906 872.80541992 C-830.97257901 866.61888177 -837.38177296 860.40521823 -841.36816406 848.44604492 C-842.72297767 837.02690163 -837.24547808 824.83460859 -830.39550781 815.85620117 C-823.65010183 807.83709618 -816.3871206 800.3930255 -808.93530273 793.03417969 C-806.01536915 790.13967878 -803.21621948 787.21037911 -800.55566406 784.07104492 C-797.75861995 780.77797328 -794.69301816 778.02075179 -791.40722656 775.22338867 C-779.35690549 764.71975632 -769.25848425 751.8251769 -759.77832031 739.02807617 C-759.31296875 738.50600586 -758.84761719 737.98393555 -758.36816406 737.44604492 C-757.70816406 737.44604492 -757.04816406 737.44604492 -756.36816406 737.44604492 C-756.11292969 736.86628906 -755.85769531 736.2865332 -755.59472656 735.68920898 C-754.2423163 733.2158918 -752.73083882 731.55002383 -750.74316406 729.55541992 C-749.68355469 728.49194336 -749.68355469 728.49194336 -748.60253906 727.40698242 C-747.86519531 726.67737305 -747.12785156 725.94776367 -746.36816406 725.19604492 C-745.63082031 724.4509668 -744.89347656 723.70588867 -744.13378906 722.93823242 C-743.07417969 721.88249023 -743.07417969 721.88249023 -741.99316406 720.80541992 C-741.34605469 720.16056641 -740.69894531 719.51571289 -740.03222656 718.85131836 C-738.36816406 717.44604492 -738.36816406 717.44604492 -736.36816406 717.44604492 C-736.03816406 716.45604492 -735.70816406 715.46604492 -735.36816406 714.44604492 C-708.9881216 689.44604492 -708.9881216 689.44604492 -700.36816406 689.44604492 C-700.36816406 688.78604492 -700.36816406 688.12604492 -700.36816406 687.44604492 C-698.56738281 686.18432617 -698.56738281 686.18432617 -696.05566406 684.75854492 C-692.41425083 682.64794926 -688.83656762 680.48679984 -685.30566406 678.19604492 C-654.34502105 658.44604492 -654.34502105 658.44604492 -646.36816406 658.44604492 C-646.36816406 657.78604492 -646.36816406 657.12604492 -646.36816406 656.44604492 C-637.75280271 652.64074884 -629.14004127 648.87917617 -620.36816406 645.44604492 C-618.82637235 644.82135345 -617.28471061 644.19634112 -615.74316406 643.57104492 C-604.67372535 639.16056544 -593.57765503 635.05748959 -582.17285156 631.60229492 C-579.77559628 630.87376559 -577.38392522 630.12633857 -575.00097656 629.35229492 C-571.80473314 628.32074448 -568.59704922 627.37024135 -565.36816406 626.44604492 C-564.42376465 626.1748584 -563.47936523 625.90367187 -562.50634766 625.62426758 C-548.76048431 622.31824696 -534.60740208 622.98301982 -520.55566406 622.94604492 C-499.20787736 622.88970806 -479.71738835 622.41140882 -459.36816406 615.44604492 C-458.61148437 615.2578418 -457.85480469 615.06963867 -457.07519531 614.87573242 C-450.32494411 613.02169824 -447.20868693 607.99803074 -443.36816406 602.44604492 C-442.95163574 601.8551709 -442.53510742 601.26429688 -442.10595703 600.65551758 C-431.75822652 585.86601902 -423.5342408 569.7692479 -418.36816406 552.44604492 C-417.90303891 551.14925578 -417.42468274 549.85710441 -416.93066406 548.57104492 C-415.47932517 544.77831952 -414.10758155 540.95820358 -412.74316406 537.13354492 C-412.31777344 535.94116211 -411.89238281 534.7487793 -411.45410156 533.52026367 C-410.74106322 531.5016983 -410.04514485 529.47698728 -409.36816406 527.44604492 C-408.70816406 527.44604492 -408.04816406 527.44604492 -407.36816406 527.44604492 C-407.27792969 526.62233398 -407.18769531 525.79862305 -407.09472656 524.94995117 C-406.21809255 520.72231294 -404.62590213 517.24626811 -402.74316406 513.38354492 C-402.38270996 512.63186035 -402.02225586 511.88017578 -401.65087891 511.10571289 C-399.01104864 505.64851652 -396.21245337 500.29099235 -393.29394531 494.97729492 C-390.42168939 489.74661997 -387.68127527 484.44503781 -384.91943359 479.15551758 C-383.0765179 475.63870008 -381.215924 472.14312312 -379.23144531 468.70385742 C-377.62918195 465.90241582 -376.15782858 463.09480534 -374.74316406 460.19604492 C-368.71748535 448.05407579 -362.31607195 436.11190936 -355.74316406 424.25854492 C-352.12434508 417.72746221 -348.65187442 411.15256427 -345.35595703 404.453125 C-342.78379277 399.23491377 -340.0928935 394.08606267 -337.36816406 388.94604492 C-334.03700393 382.65587574 -330.78687292 376.33603812 -327.63354492 369.95507812 C-323.76741906 362.16965387 -319.71430675 354.48023137 -315.67163086 346.78540039 C-314.85819214 345.23103271 -314.85819214 345.23103271 -314.02832031 343.64526367 C-313.29560913 342.25053833 -313.29560913 342.25053833 -312.5480957 340.82763672 C-311.27426837 338.39402633 -311.27426837 338.39402633 -310.36816406 335.44604492 C-309.70816406 335.44604492 -309.04816406 335.44604492 -308.36816406 335.44604492 C-308.16320313 334.83116211 -307.95824219 334.2162793 -307.74707031 333.58276367 C-306.62076823 330.20385742 -305.49446615 326.82495117 -304.36816406 323.44604492 C-303.70816406 323.44604492 -303.04816406 323.44604492 -302.36816406 323.44604492 C-302.03816406 322.27041992 -301.70816406 321.09479492 -301.36816406 319.88354492 C-299.43232416 314.06693678 -296.47945196 308.84450317 -293.55175781 303.48901367 C-291.3443523 299.44161105 -289.28379251 295.32946159 -287.24316406 291.19604492 C-283.57734909 283.79912729 -279.66482162 276.56132272 -275.64160156 269.35229492 C-271.21714124 261.26809582 -267.30204819 253.02576617 -263.49316406 244.63354492 C-259.27111236 235.34277339 -254.73108818 226.39131841 -249.66894531 217.53588867 C-247.03469172 212.91306411 -244.67539802 208.17062299 -242.3293457 203.39697266 C-240.00052014 198.6712204 -237.55320511 194.02199219 -235.05566406 189.38354492 C-231.41672762 182.60896298 -228.08424081 175.71381937 -224.80566406 168.75854492 C-221.01277623 160.7446869 -217.09177576 152.95296238 -212.51367188 145.3527832 C-211.14700648 143.0779203 -209.80115626 140.79116657 -208.45410156 138.50463867 C-203.38157294 129.93017837 -198.26674947 121.48431327 -192.36816406 113.44604492 C-191.09240096 111.65788517 -189.82159609 109.86617804 -188.55566406 108.07104492 C-187.99234375 107.27956055 -187.42902344 106.48807617 -186.84863281 105.67260742 C-185.50317873 103.64910128 -184.39691528 101.64405972 -183.36816406 99.44604492 C-182.70816406 99.44604492 -182.04816406 99.44604492 -181.36816406 99.44604492 C-181.12565918 98.9064917 -180.8831543 98.36693848 -180.63330078 97.81103516 C-174.90646429 87.10554209 -165.63630884 78.20875798 -157.10253906 69.734375 C-155.25339999 67.89373381 -153.4237271 66.03518857 -151.59472656 64.17456055 C-139.75036712 52.26136492 -126.52073577 42.45781272 -112.36816406 33.44604492 C-111.61148438 32.96135742 -110.85480469 32.47666992 -110.07519531 31.97729492 C-74.84933268 10.15059863 -41.36253817 -0.1362286 0 0 Z " fill="#000000" transform="translate(1792.3681640625,53.553955078125)"/>
<path d="M0 0 C0.82886719 0.37382813 1.65773437 0.74765625 2.51171875 1.1328125 C19.61054811 8.93012427 34.62963149 23.92514276 44 40 C44.51602783 40.87011719 44.51602783 40.87011719 45.04248047 41.7578125 C49.73906777 49.75200365 53.05578245 57.33573773 55.30859375 66.3671875 C55.73906736 68.90717155 55.73906736 68.90717155 57 70 C59.65033467 85.71269841 59.68310889 103.71512971 55 119 C54.68675781 120.12277344 54.37351562 121.24554687 54.05078125 122.40234375 C52.17844658 128.86300846 49.85656185 134.92032632 47 141 C46.32165413 142.66194738 45.64800425 144.32598903 45 146 C44.34 146 43.68 146 43 146 C42.814375 146.969375 42.62875 147.93875 42.4375 148.9375 C40.99817905 154.06442425 37.65090976 158.20270942 34 162 C33.34 162 32.68 162 32 162 C31.7525 162.61875 31.505 163.2375 31.25 163.875 C29.77229238 166.38710296 28.56044823 166.76107344 26 168 C25.67 168.99 25.34 169.98 25 171 C23.54467773 172.36279297 23.54467773 172.36279297 21.68359375 173.7421875 C20.65975586 174.50595703 20.65975586 174.50595703 19.61523438 175.28515625 C18.89658203 175.80980469 18.17792969 176.33445312 17.4375 176.875 C16.74591797 177.39191406 16.05433594 177.90882813 15.34179688 178.44140625 C2.86679501 187.67267511 -9.36245849 192.9249174 -24.5078125 196.203125 C-27.82937262 196.8159265 -27.82937262 196.8159265 -30 198 C-64.17654489 200.41165135 -93.44250975 189.36534819 -120.1015625 168.58203125 C-135.92493434 154.48600862 -145.60331637 131.7348122 -148 111 C-148.25534565 106.26854191 -148.3303511 101.55707816 -148.31567383 96.81958008 C-148.31251884 94.70015673 -148.33605512 92.58214239 -148.36132812 90.46289062 C-148.48709997 63.26443451 -137.85234651 38.022001 -118.671875 18.6484375 C-109.04655017 9.59821069 -97.86836779 3.57200366 -86 -2 C-85.16984375 -2.391875 -84.3396875 -2.78375 -83.484375 -3.1875 C-57.48750339 -14.50586587 -24.99773955 -13.39177504 0 0 Z " fill="#000000" transform="translate(250,937)"/>
<path d="M0 0 C2.23823227 -0.0021808 4.47596637 -0.02035391 6.71411133 -0.03930664 C14.03373096 -0.0689118 20.86027755 0.17398805 27.94262695 2.18530273 C29.49075801 2.52739911 31.04030689 2.86312938 32.59106445 3.19311523 C42.6631568 5.50936018 50.03353423 8.26798513 57.94262695 15.18530273 C58.81661133 15.86463867 59.6905957 16.54397461 60.59106445 17.24389648 C81.11990038 33.27285863 99.07236105 53.91954638 103.47753906 80.40087891 C104.21011372 86.36184468 104.12858716 92.32192637 104.12792969 98.31811523 C104.13011438 100.54747674 104.14830667 102.77634106 104.16723633 105.00561523 C104.19682776 112.27636273 104.07193063 119.17165554 101.94262695 126.18530273 C101.67712036 127.15959229 101.67712036 127.15959229 101.40625 128.15356445 C98.79157032 137.58243637 95.35235295 146.43697536 90.94262695 155.18530273 C90.5662207 155.97163086 90.18981445 156.75795898 89.80200195 157.56811523 C78.63494933 179.5090144 56.29199193 194.78955446 33.42260742 202.28369141 C7.4802329 210.40720959 -19.9686729 208.70035392 -44.22192383 196.33276367 C-56.00330183 190.14718059 -56.00330183 190.14718059 -61.05737305 186.18530273 C-61.05737305 185.52530273 -61.05737305 184.86530273 -61.05737305 184.18530273 C-61.77924805 183.95842773 -62.50112305 183.73155273 -63.24487305 183.49780273 C-68.45673821 181.06559899 -71.53721787 176.5854967 -75.05737305 172.18530273 C-75.88237305 171.36030273 -76.70737305 170.53530273 -77.55737305 169.68530273 C-87.42435585 159.81831993 -94.38447847 146.53946834 -98.05737305 133.18530273 C-98.39639648 132.1862793 -98.73541992 131.18725586 -99.0847168 130.15795898 C-106.07742885 108.78665828 -104.2816771 81.60640354 -95.05737305 61.18530273 C-94.58557617 60.11280273 -94.1137793 59.04030273 -93.62768555 57.93530273 C-89.58533472 49.27035933 -84.51309167 42.05238578 -78.36401367 34.74755859 C-77.08590217 33.21941295 -75.84836224 31.65762294 -74.61206055 30.09545898 C-71.92722984 27.03705092 -69.04866807 24.55160929 -65.80737305 22.12280273 C-65.23744629 21.69088623 -64.66751953 21.25896973 -64.08032227 20.81396484 C-48.48320077 9.18530273 -48.48320077 9.18530273 -40.05737305 9.18530273 C-40.05737305 8.52530273 -40.05737305 7.86530273 -40.05737305 7.18530273 C-36.85089929 6.19997538 -33.64189301 5.22315755 -30.43237305 4.24780273 C-29.52874023 3.97000977 -28.62510742 3.6922168 -27.6940918 3.40600586 C-26.81108398 3.13852539 -25.92807617 2.87104492 -25.01831055 2.59545898 C-23.80860596 2.22626343 -23.80860596 2.22626343 -22.57446289 1.84960938 C-15.10018372 -0.12299136 -7.66994726 -0.00083633 0 0 Z " fill="#000000" transform="translate(471.057373046875,625.814697265625)"/>
</svg>
