<?xml version="1.0" encoding="UTF-8"?>
<svg version="1.1" xmlns="http://www.w3.org/2000/svg" width="512" height="512">
<path d="M0 0 C5.22578731 2.39840239 8.11356416 5.46436229 10.96875 10.4609375 C12.47421711 16.10643917 12.75597623 21.17871472 10.13140869 26.47914124 C7.57340956 30.81887694 4.22865215 34.16260823 0.65527344 37.67749023 C-0.04756775 38.3807695 -0.75040894 39.08404877 -1.47454834 39.80863953 C-3.78327959 42.11529243 -6.10243017 44.41115593 -8.421875 46.70703125 C-10.03107064 48.31062758 -11.63960217 49.91489059 -13.24749756 51.51979065 C-17.46918484 55.73005573 -21.69980527 59.93123119 -25.93237305 64.1305542 C-30.25463587 68.42205973 -34.56835686 72.72213251 -38.8828125 77.02148438 C-47.34063746 85.44719148 -55.80792801 93.86331717 -64.28125 102.2734375 C-60.64825423 105.9857967 -56.92982573 109.08996633 -52.65625 112.0234375 C-46.28010934 116.49348982 -40.23377678 121.24890296 -34.28125 126.2734375 C-33.20853048 127.17080864 -32.1356054 128.0679341 -31.0625 128.96484375 C-24.34258095 134.59842677 -17.74847079 140.35000705 -11.28125 146.2734375 C-10.76530273 146.74426758 -10.24935547 147.21509766 -9.71777344 147.70019531 C-1.19705227 155.48041928 7.21684385 163.25541576 14.74609375 172.01953125 C16.68352994 174.23319596 18.66991697 176.39577828 20.67114258 178.55175781 C48.46919637 208.52995758 48.46919637 208.52995758 48.140625 222.1328125 C46.78863749 232.19760841 37.73048816 240.18205824 31.25488281 247.51513672 C29.37112769 249.67133576 27.5427327 251.86979932 25.71533203 254.07373047 C14.18534299 267.94326223 1.68481734 281.59298723 -12.04296875 293.3125 C-14.33139 295.31736469 -16.54636339 297.39132006 -18.76049805 299.47753906 C-25.410827 305.72436935 -32.34300373 311.44099653 -39.59326172 316.97509766 C-41.18117979 318.19646709 -42.74953428 319.44315174 -44.31640625 320.69140625 C-59.30640004 332.54800779 -75.47740198 342.79985555 -92.16308594 352.08886719 C-94.0705579 353.15560923 -95.96209667 354.2455715 -97.8515625 355.34375 C-122.04914717 368.95833636 -148.97090057 377.69788157 -176.28125 382.2734375 C-176.97718262 382.39203125 -177.67311523 382.510625 -178.39013672 382.6328125 C-223.54697756 389.99641285 -270.44521316 378.85054256 -311.07495117 359.29150391 C-313.4461262 358.19735763 -315.85397571 357.23564181 -318.28125 356.2734375 C-318.68801783 356.68297071 -319.09478565 357.09250391 -319.51387978 357.51444721 C-329.42142485 367.48830511 -339.33731122 377.45380509 -349.26249123 387.41011524 C-354.06207566 392.22515492 -358.85881884 397.04296193 -363.64892578 401.86743164 C-368.27157113 406.52322252 -372.90206623 411.17110705 -377.53742599 415.81424522 C-379.30467682 417.5870394 -381.06928487 419.36247215 -382.83119583 421.1405735 C-385.29930337 423.63045494 -387.77663779 426.1107921 -390.25634766 428.58911133 C-390.98283508 429.32638458 -391.70932251 430.06365784 -392.45782471 430.82327271 C-397.35377404 435.68958975 -401.9047493 439.69904979 -409.15625 439.7109375 C-415.58177878 439.49804347 -420.18427062 437.42560054 -424.65625 432.8359375 C-428.20955661 427.23264631 -429.41194926 421.88515351 -428.28125 415.2734375 C-425.41567066 409.48627733 -421.79817755 405.37480702 -417.21777344 400.86938477 C-416.16351166 399.81446587 -416.16351166 399.81446587 -415.08795166 398.73823547 C-412.77922041 396.43158257 -410.46006983 394.13571907 -408.140625 391.83984375 C-406.53142936 390.23624742 -404.92289783 388.63198441 -403.31500244 387.02708435 C-399.09331516 382.81681927 -394.86269473 378.61564381 -390.63012695 374.4163208 C-386.30786413 370.12481527 -381.99414314 365.82474249 -377.6796875 361.52539062 C-369.22186254 353.09968352 -360.75457199 344.68355783 -352.28125 336.2734375 C-355.91424577 332.5610783 -359.63267427 329.45690867 -363.90625 326.5234375 C-370.28239066 322.05338518 -376.32872322 317.29797204 -382.28125 312.2734375 C-383.35396952 311.37606636 -384.4268946 310.4789409 -385.5 309.58203125 C-392.21991905 303.94844823 -398.81402921 298.19686795 -405.28125 292.2734375 C-406.0551709 291.56719238 -406.0551709 291.56719238 -406.84472656 290.84667969 C-415.36544773 283.06645572 -423.77934385 275.29145924 -431.30859375 266.52734375 C-433.24602994 264.31367904 -435.23241697 262.15109672 -437.23364258 259.99511719 C-465.03169637 230.01691742 -465.03169637 230.01691742 -464.703125 216.4140625 C-463.35113749 206.34926659 -454.29298816 198.36481676 -447.81738281 191.03173828 C-445.93362769 188.87553924 -444.1052327 186.67707568 -442.27783203 184.47314453 C-430.74784299 170.60361277 -418.24731734 156.95388777 -404.51953125 145.234375 C-402.23111 143.22951031 -400.01613661 141.15555494 -397.80200195 139.06933594 C-391.151673 132.82250565 -384.21949627 127.10587847 -376.96923828 121.57177734 C-375.38132021 120.35040791 -373.81296572 119.10372326 -372.24609375 117.85546875 C-357.25609996 105.99886721 -341.08509802 95.74701945 -324.39941406 86.45800781 C-322.4919421 85.39126577 -320.60040333 84.3013035 -318.7109375 83.203125 C-294.51335283 69.58853864 -267.59159943 60.84899343 -240.28125 56.2734375 C-239.58531738 56.15484375 -238.88938477 56.03625 -238.17236328 55.9140625 C-193.01552244 48.55046215 -146.11728684 59.69633244 -105.48754883 79.25537109 C-103.1163738 80.34951737 -100.70852429 81.31123319 -98.28125 82.2734375 C-97.87448217 81.86390429 -97.46771435 81.45437109 -97.04862022 81.03242779 C-87.14107515 71.05856989 -77.22518878 61.09306991 -67.30000877 51.13675976 C-62.50042434 46.32172008 -57.70368116 41.50391307 -52.91357422 36.67944336 C-48.29092887 32.02365248 -43.66043377 27.37576795 -39.02507401 22.73262978 C-37.25782318 20.9598356 -35.49321513 19.18440285 -33.73130417 17.4063015 C-31.26319663 14.91642006 -28.78586221 12.4360829 -26.30615234 9.95776367 C-25.57966492 9.22049042 -24.85317749 8.48321716 -24.10467529 7.72360229 C-17.05033471 0.71195747 -10.03047441 -3.1946374 0 0 Z M-403.1875 197.37109375 C-404.27401413 198.61904748 -405.35246668 199.87407576 -406.421875 201.13671875 C-407.94110712 202.88255903 -409.48966425 204.5720997 -411.078125 206.25390625 C-411.57497803 206.78306641 -412.07183105 207.31222656 -412.58374023 207.85742188 C-413.5672191 208.9018017 -414.5560739 209.94115331 -415.55102539 210.97460938 C-418.29060454 213.89760556 -420.0700293 216.44373967 -421.28125 220.2734375 C-407.36762075 236.85578893 -392.78350618 253.50963678 -376.265625 267.5703125 C-373.93503876 269.57057943 -371.67430926 271.64010078 -369.40625 273.7109375 C-361.41606096 280.89488759 -352.90880517 287.35868383 -344.34375 293.8359375 C-343.52148926 294.46129395 -342.69922852 295.08665039 -341.85205078 295.73095703 C-335.80886565 300.27318918 -329.70481264 304.18571582 -323.28125 308.2734375 C-310.74125 295.7334375 -298.20125 283.1934375 -285.28125 270.2734375 C-286.63796821 266.88164198 -287.97550824 263.84934059 -289.65625 260.6484375 C-300.35616473 239.4064239 -302.20757997 215.48406782 -295.46875 192.6484375 C-294.76140446 190.51607465 -294.03254241 188.39071612 -293.28125 186.2734375 C-292.75917969 184.77683594 -292.75917969 184.77683594 -292.2265625 183.25 C-284.01577656 161.67545212 -266.84153526 145.53680967 -246.19921875 135.9609375 C-224.24167686 126.2616373 -198.9579819 125.31252106 -176.40625 133.5859375 C-171.19393104 135.71795253 -166.39550868 138.35250915 -161.62109375 141.33203125 C-159.34767368 142.55745246 -159.34767368 142.55745246 -157.32403564 141.5071106 C-155.33910253 140.30837563 -153.88412419 139.118156 -152.25683594 137.47607422 C-151.69655701 136.91564423 -151.13627808 136.35521423 -150.559021 135.77780151 C-149.96720032 135.17565826 -149.37537964 134.57351501 -148.765625 133.953125 C-148.14979553 133.33446564 -147.53396606 132.71580627 -146.8994751 132.07839966 C-144.93864664 130.10639936 -142.98489699 128.12755013 -141.03125 126.1484375 C-139.70098201 124.80813586 -138.370258 123.46828667 -137.0390625 122.12890625 C-133.7811485 118.84897161 -130.52956467 115.56287808 -127.28125 112.2734375 C-131.36123837 109.0330094 -135.59384796 107.30361258 -140.40625 105.3984375 C-141.29280273 105.04692627 -142.17935547 104.69541504 -143.09277344 104.33325195 C-156.77561328 99.02743732 -170.7990415 95.56826283 -185.28125 93.2734375 C-186.44269531 93.08910156 -187.60414063 92.90476562 -188.80078125 92.71484375 C-271.63897352 82.86457149 -350.12037139 138.97550346 -403.1875 197.37109375 Z M-93.28125 130.2734375 C-105.82125 142.8134375 -118.36125 155.3534375 -131.28125 168.2734375 C-129.92453179 171.66523302 -128.58699176 174.69753441 -126.90625 177.8984375 C-116.20633527 199.1404511 -114.35492003 223.06280718 -121.09375 245.8984375 C-121.80109554 248.03080035 -122.52995759 250.15615888 -123.28125 252.2734375 C-123.80332031 253.77003906 -123.80332031 253.77003906 -124.3359375 255.296875 C-132.54672344 276.87142288 -149.72096474 293.01006533 -170.36328125 302.5859375 C-192.32082314 312.2852377 -217.6045181 313.23435394 -240.15625 304.9609375 C-245.36856896 302.82892247 -250.16699132 300.19436585 -254.94140625 297.21484375 C-257.21482632 295.98942254 -257.21482632 295.98942254 -259.23846436 297.0397644 C-261.22339747 298.23849937 -262.67837581 299.428719 -264.30566406 301.07080078 C-265.14608246 301.91144577 -265.14608246 301.91144577 -266.003479 302.76907349 C-266.59529968 303.37121674 -267.18712036 303.97335999 -267.796875 304.59375 C-268.41270447 305.21240936 -269.02853394 305.83106873 -269.6630249 306.46847534 C-271.62385336 308.44047564 -273.57760301 310.41932487 -275.53125 312.3984375 C-276.86151799 313.73873914 -278.192242 315.07858833 -279.5234375 316.41796875 C-282.7813515 319.69790339 -286.03293533 322.98399692 -289.28125 326.2734375 C-285.20126163 329.5138656 -280.96865204 331.24326242 -276.15625 333.1484375 C-275.26969727 333.49994873 -274.38314453 333.85145996 -273.46972656 334.21362305 C-259.78688672 339.51943768 -245.7634585 342.97861217 -231.28125 345.2734375 C-230.11980469 345.45777344 -228.95835937 345.64210938 -227.76171875 345.83203125 C-166.98824762 353.0585921 -111.03685358 324.33023203 -64.46875 288.0234375 C-45.19503928 272.83100204 -26.03139856 256.17228245 -10.140625 237.41015625 C-8.62139288 235.66431597 -7.07283575 233.9747753 -5.484375 232.29296875 C-4.98752197 231.76380859 -4.49066895 231.23464844 -3.97875977 230.68945312 C-2.9952809 229.6450733 -2.0064261 228.60572169 -1.01147461 227.57226562 C1.72810454 224.64926944 3.5075293 222.10313533 4.71875 218.2734375 C-9.19487925 201.69108607 -23.77899382 185.03723822 -40.296875 170.9765625 C-42.62746124 168.97629557 -44.88819074 166.90677422 -47.15625 164.8359375 C-55.14643904 157.65198741 -63.65369483 151.18819117 -72.21875 144.7109375 C-73.45214111 143.77290283 -73.45214111 143.77290283 -74.71044922 142.81591797 C-80.75363435 138.27368582 -86.85768736 134.36115918 -93.28125 130.2734375 Z M-249.1796875 182.62890625 C-260.00365376 196.24939911 -264.14058852 211.03160429 -262.28125 228.2734375 C-261.40663349 232.75703117 -259.96077875 237.02962826 -258.28125 241.2734375 C-255.46394406 239.98914184 -253.40665182 238.64949214 -251.21868896 236.46484375 C-250.64102783 235.89282227 -250.0633667 235.32080078 -249.46820068 234.73144531 C-248.53599701 233.79316895 -248.53599701 233.79316895 -247.58496094 232.8359375 C-246.58922058 231.8454541 -246.58922058 231.8454541 -245.57336426 230.83496094 C-243.38239524 228.65278896 -241.19881598 226.46338914 -239.015625 224.2734375 C-237.49705792 222.75621732 -235.97819402 221.23929417 -234.45904541 219.72265625 C-231.27835144 216.54491053 -228.10130286 213.36357562 -224.92675781 210.1796875 C-220.84881302 206.09032903 -216.7619306 202.01003936 -212.67229843 197.93237305 C-209.53583705 194.80312172 -206.40413393 191.66914348 -203.27387238 188.53369141 C-201.76818085 187.02666203 -200.26099209 185.52112707 -198.75231171 184.01708984 C-196.64999589 181.91982726 -194.55415496 179.8163057 -192.45996094 177.7109375 C-191.51561188 176.77266113 -191.51561188 176.77266113 -190.55218506 175.81542969 C-187.36818947 173.05727367 -187.36818947 173.05727367 -186.28125 169.2734375 C-208.30663996 160.5566754 -232.65938007 164.99723268 -249.1796875 182.62890625 Z M-164.97238159 201.69351196 C-165.61974274 202.34492157 -166.26710388 202.99633118 -166.93408203 203.66748047 C-167.61712402 204.34701782 -168.30016602 205.02655518 -169.00390625 205.72668457 C-171.27069909 207.98464175 -173.53005951 210.24987626 -175.7890625 212.515625 C-177.35532816 214.08054454 -178.9218907 215.645167 -180.48873901 217.20950317 C-183.775545 220.4933554 -187.05869283 223.7808115 -190.33935547 227.07080078 C-194.55412896 231.29696886 -198.77781522 235.514097 -203.00427437 239.72857475 C-206.24196516 242.95905378 -209.4748959 246.19426249 -212.70638657 249.43094254 C-214.26231738 250.98821174 -215.81974684 252.54398503 -217.37866592 254.09826279 C-219.55304426 256.26758716 -221.72094961 258.44317581 -223.88720703 260.62060547 C-224.53861664 261.26796661 -225.19002625 261.91532776 -225.86117554 262.58230591 C-229.13718524 265.40430444 -229.13718524 265.40430444 -230.28125 269.2734375 C-216.97977183 274.53762674 -202.91018201 275.49446969 -189.3046875 270.59375 C-172.99896775 263.47316437 -163.0686481 252.75147199 -156.1171875 236.5625 C-151.89928153 223.75110337 -153.40103977 209.604683 -158.28125 197.2734375 C-161.48084374 197.2734375 -162.81992239 199.56156703 -164.97238159 201.69351196 Z " fill="#000000" transform="translate(464.28125,36.7265625)"/>
</svg>
