<?xml version="1.0" encoding="UTF-8"?>
<svg version="1.1" xmlns="http://www.w3.org/2000/svg" width="512" height="512">
<path d="M0 0 C1.24201172 -0.020625 2.48402344 -0.04125 3.76367188 -0.0625 C19.83106137 -0.12990384 19.83106137 -0.12990384 26.6875 3.25 C36.37553528 20.41241162 29.69582424 55.19516379 25.6875 73.25 C25.45675781 74.29575195 25.22601563 75.34150391 24.98828125 76.41894531 C18.81053788 103.57323265 9.43479689 130.02427152 -2.3125 155.25 C-2.77237305 156.25047363 -3.23224609 157.25094727 -3.70605469 158.28173828 C-29.13452999 213.43415577 -64.98006705 263.37145044 -112.62890625 301.3828125 C-113.23323486 301.87950439 -113.83756348 302.37619629 -114.46020508 302.88793945 C-116.3125 304.25 -116.3125 304.25 -118.3112793 305.16479492 C-120.63440159 306.3105776 -121.80933406 307.11739187 -123.3125 309.25 C-124.12842384 313.84564706 -124.12240536 318.36822831 -124.03793335 323.01620483 C-123.97421157 326.87360226 -124.03485026 330.72875759 -124.09375 334.5859375 C-124.10363449 335.34285385 -124.11351898 336.0997702 -124.123703 336.87962341 C-124.55419816 360.69455019 -133.95180902 382.234743 -149.3125 400.25 C-149.90417969 400.98734375 -150.49585938 401.7246875 -151.10546875 402.484375 C-173.12903647 428.96900655 -212.07177082 444.29257124 -245.4765625 448.6640625 C-250.02437304 448.91895454 -251.68010367 448.74042981 -255.375 445.875 C-261.87354586 437.07051851 -256.67831061 418.43612376 -255.5 407.7890625 C-255.32425069 406.1800667 -255.14871793 404.57104724 -254.97338867 402.96200562 C-254.60935093 399.62902227 -254.24267052 396.29634376 -253.87402344 392.96386719 C-253.40142341 388.68958364 -252.93577198 384.41457492 -252.47203064 380.13932228 C-252.11278642 376.83457999 -251.74990134 373.53024545 -251.38589478 370.22602463 C-251.21251426 368.6480495 -251.04028593 367.06994734 -250.86923218 365.49171829 C-250.63138305 363.3021549 -250.38862954 361.11319069 -250.14453125 358.92431641 C-250.00764893 357.68017975 -249.8707666 356.43604309 -249.72973633 355.15420532 C-249.3125 352.25 -249.3125 352.25 -248.3125 350.25 C-249.35148438 350.27320313 -250.39046875 350.29640625 -251.4609375 350.3203125 C-266.31559189 350.55932831 -275.1270621 349.17099132 -286.18652344 338.66650391 C-287.52051239 337.3588161 -288.84876882 336.04526033 -290.171875 334.7265625 C-290.88353821 334.02155609 -291.59520142 333.31654968 -292.32843018 332.59017944 C-293.82002952 331.10863716 -295.30899252 329.62443629 -296.79541016 328.13769531 C-299.05991972 325.87757528 -301.33997364 323.6339636 -303.62109375 321.390625 C-305.0764993 319.94108593 -306.53095916 318.49059659 -307.984375 317.0390625 C-308.66046814 316.37734039 -309.33656128 315.71561829 -310.03314209 315.03384399 C-317.85013727 307.1410484 -320.44789547 299.70081097 -320.40039062 288.6796875 C-320.38782227 287.53886719 -320.38782227 287.53886719 -320.375 286.375 C-320.37048828 285.59125 -320.36597656 284.8075 -320.36132812 284 C-320.34964093 282.08329986 -320.33170908 280.16663952 -320.3125 278.25 C-321.05593155 278.37180634 -321.7993631 278.49361267 -322.56532288 278.61911011 C-331.72462298 280.07842474 -340.90541813 281.17709894 -350.12109375 282.1953125 C-351.70241362 282.37167303 -353.28371723 282.54817936 -354.86500549 282.724823 C-358.15158608 283.09130796 -361.43838096 283.45578948 -364.7253418 283.81884766 C-368.92748968 284.28319487 -373.12900195 284.7530426 -377.33036709 285.22441292 C-380.58409439 285.58878239 -383.83815982 285.95005596 -387.09233284 286.31042099 C-388.6421219 286.48245522 -390.19180046 286.65548813 -391.74136162 286.82956314 C-393.90332697 287.0720073 -396.06571946 287.31021692 -398.22827148 287.54736328 C-399.45480942 287.68345001 -400.68134735 287.81953674 -401.9450531 287.95974731 C-408.61307712 288.53448893 -411.89837968 288.53093234 -417.3125 284.25 C-422.90197836 273.07104329 -414.47157851 253.42587541 -410.86352539 242.45483398 C-407.48634925 232.60974967 -403.28535165 223.38256456 -398.3125 214.25 C-397.75949219 213.20585937 -397.20648438 212.16171875 -396.63671875 211.0859375 C-382.49819995 185.50837842 -360.02732569 166.25589881 -331.9375 157.875 C-329.73515791 157.30946645 -327.52709556 156.76546621 -325.3125 156.25 C-324.45140625 156.03730469 -323.5903125 155.82460937 -322.703125 155.60546875 C-316.70268894 154.31034358 -310.67683623 153.9488816 -304.5625 153.625 C-303.69753906 153.57609619 -302.83257812 153.52719238 -301.94140625 153.47680664 C-297.92098323 153.28354605 -294.0436808 153.20684921 -290.0390625 153.6484375 C-286.15333007 154.00311896 -283.1125235 154.15672024 -279.3125 153.25 C-275.58875577 149.96403306 -273.14407373 146.26625789 -270.52050781 142.08447266 C-268.55997778 139.10722474 -266.26598151 136.4430792 -263.9375 133.75 C-263.48213867 133.21624756 -263.02677734 132.68249512 -262.55761719 132.13256836 C-251.65511155 119.42125529 -240.22259484 106.92185364 -227.1015625 96.48046875 C-224.26424421 94.21140889 -221.51069637 91.8614221 -218.75 89.5 C-199.61377394 73.56958501 -178.34539496 60.66103521 -156.65039062 48.55615234 C-154.65156151 47.43942973 -152.66107917 46.30949246 -150.671875 45.17578125 C-130.25118785 33.84942338 -108.28316676 25.03255851 -86.3125 17.25 C-85.54534668 16.9710791 -84.77819336 16.6921582 -83.98779297 16.40478516 C-64.4764023 9.31808019 -43.8718356 4.13942014 -23.3125 1.25 C-22.66949951 1.1571875 -22.02649902 1.064375 -21.36401367 0.96875 C-14.25990383 0.04986756 -7.15438027 0.02942676 0 0 Z M-152.6875 115.625 C-154.24902461 117.14654958 -155.79273651 118.68673702 -157.3125 120.25 C-158.19228516 121.09884766 -158.19228516 121.09884766 -159.08984375 121.96484375 C-168.19280609 131.43841015 -169.79271896 144.11671714 -169.58984375 156.62109375 C-169.06609906 169.41766173 -162.5795429 179.74062636 -153.5078125 188.3984375 C-142.06258934 198.05152607 -130.01142926 200.32905626 -115.44238281 199.45703125 C-103.75067383 198.32056068 -93.82560494 191.55512032 -85.90625 183.1875 C-76.48314966 171.73196625 -74.23914861 159.83311623 -75.10107422 145.38427734 C-76.29966104 133.2849171 -83.23137397 123.55895961 -91.75 115.328125 C-109.32638828 101.0741028 -135.50677605 100.52756742 -152.6875 115.625 Z " fill="#000000" transform="translate(450.3125,31.75)"/>
<path d="M0 0 C1 1 1 1 1.234375 3.71875 C0.97184749 7.3941351 0.05701296 9.3153633 -1.75 12.5 C-7.31062209 23.13370149 -11.23178207 34.87226211 -8.3046875 46.84375 C-4.97988849 57.01372344 0.44207488 64.05146135 10 69 C22.02111756 74.00879899 33.9570977 72.17180251 46 68 C48.77797151 66.52100373 51.311233 64.90187163 53.90625 63.12890625 C56.28409346 61.84682274 57.48064809 61.74198871 60.125 62.125 C61.07375 62.41375 62.0225 62.7025 63 63 C64.11910023 77.05092514 57.96262863 89.24965073 49.6875 100.3125 C25.1950457 124.8049543 -22.95428113 127.91036045 -55.5612793 128.12963867 C-58.7090472 128.12332786 -61.85312568 128.07512432 -65 128 C-66.21130995 94.4870913 -64.03879067 42.63033316 -40 16 C-28.62702253 6.13102698 -15.42794545 -1.2708844 0 0 Z " fill="#000000" transform="translate(113,336)"/>
</svg>
