<?xml version="1.0" encoding="UTF-8"?>
<svg version="1.1" xmlns="http://www.w3.org/2000/svg" width="512" height="512">
<path d="M0 0 C1.36629547 -0.0049926 1.36629547 -0.0049926 2.76019287 -0.01008606 C4.67622376 -0.01511746 6.59226329 -0.01749557 8.50830078 -0.01733398 C11.40021614 -0.01951492 14.29174591 -0.03769624 17.18359375 -0.05664062 C44.3331746 -0.1457524 44.3331746 -0.1457524 51.171875 6.16796875 C54.09479785 10.72184417 54.51836192 14.31425788 54.609375 19.66796875 C55.04626225 31.01782578 57.79225886 41.66108979 64.171875 51.16796875 C64.66300781 51.915625 65.15414063 52.66328125 65.66015625 53.43359375 C73.74627044 64.78117166 85.91335858 71.46240005 99.359375 74.48046875 C113.68776604 76.84204192 129.53540978 73.59729789 141.671875 65.5 C143.90769412 63.78914517 146.05162852 62.01962354 148.171875 60.16796875 C149.46330032 59.04269171 150.75494983 57.91767188 152.046875 56.79296875 C152.58054687 56.31085937 153.11421875 55.82875 153.6640625 55.33203125 C156.36847158 53.24417139 159.11958107 52.96516033 162.421875 52.85546875 C163.14890625 52.81808594 163.8759375 52.78070313 164.625 52.7421875 C171.42938179 53.87972986 176.38549316 58.87195703 181.171875 63.48046875 C181.81342529 64.09075928 182.45497559 64.7010498 183.1159668 65.32983398 C185.14316197 67.26718391 187.15803809 69.21674571 189.171875 71.16796875 C189.82881348 71.79767578 190.48575195 72.42738281 191.16259766 73.07617188 C215.20369532 96.16804319 215.20369532 96.16804319 215.484375 105.91796875 C215.37834365 112.11196655 213.11325316 114.9171489 209.11328125 119.5546875 C199.16070177 131.31987842 192.18365641 144.89610122 192.890625 160.7734375 C194.72022552 176.35045303 200.32615877 190.7802704 212.51953125 201.16796875 C222.38358159 208.42140671 232.89821353 212.55397617 245.02978516 213.75805664 C258.08991215 215.11408305 258.08991215 215.11408305 263.171875 220.16796875 C268.10512315 227.16999838 267.32912003 236.77781752 267.33984375 245.03125 C267.34317215 245.94448532 267.34650055 246.85772064 267.34992981 247.79862976 C267.35496079 249.71885683 267.35733933 251.63909252 267.35717773 253.55932617 C267.35936128 256.4622267 267.37755018 259.36474473 267.39648438 262.26757812 C267.47985293 289.334326 267.47985293 289.334326 261.171875 296.16796875 C256.51407374 299.00642326 252.89624977 299.54075524 247.484375 299.66796875 C235.11152255 300.19552636 223.28419987 303.45161596 213.4453125 311.359375 C211.171875 313.16796875 211.171875 313.16796875 209.171875 313.16796875 C208.91019531 313.75449219 208.64851563 314.34101563 208.37890625 314.9453125 C207.10935347 317.28309739 205.71040304 318.83018941 203.859375 320.73046875 C194.68493143 331.04933355 191.53438054 345.21505389 191.890625 358.72265625 C193.05986205 373.04581007 198.83029298 384.4791905 208.90234375 394.59765625 C212.32406464 398.47285822 214.59973806 402.35333633 214.609375 407.60546875 C214.63837891 408.65541016 214.63837891 408.65541016 214.66796875 409.7265625 C213.24775812 416.71578804 208.14192394 421.71490133 203.359375 426.66796875 C202.70283936 427.35576416 202.04630371 428.04355957 201.36987305 428.75219727 C199.31225071 430.89903634 197.24276018 433.03392891 195.171875 435.16796875 C194.19589355 436.18479736 194.19589355 436.18479736 193.20019531 437.22216797 C171.38828165 459.9129702 171.38828165 459.9129702 160.40625 461.20703125 C154.38795126 461.10181624 151.1998145 458.301008 146.984375 454.41796875 C134.76127389 443.22374821 120.01764849 438.27134207 103.546875 438.8515625 C88.47172565 440.26485775 76.48457208 446.00910165 66.171875 457.16796875 C57.99387575 467.64154673 53.36561475 479.82287916 52.859375 493.04296875 C52.44348295 498.97718961 51.97611629 502.56283456 48.171875 507.16796875 C40.49157265 512.89054697 31.58769656 512.32388264 22.34375 512.3359375 C21.43288635 512.3392659 20.52202271 512.3425943 19.58355713 512.34602356 C17.66752624 512.35105496 15.75148671 512.35343307 13.83544922 512.35327148 C10.94353386 512.35545242 8.05200409 512.37363374 5.16015625 512.39257812 C-22.00235522 512.48173234 -22.00235522 512.48173234 -28.828125 506.16796875 C-31.74107224 501.48644639 -32.0096446 497.58913782 -32.265625 492.10546875 C-32.82814956 480.95424658 -35.55619038 470.51438112 -41.828125 461.16796875 C-42.31925781 460.4203125 -42.81039062 459.67265625 -43.31640625 458.90234375 C-51.40252044 447.55476584 -63.56960858 440.87353745 -77.015625 437.85546875 C-91.34401604 435.49389558 -107.19165978 438.73863961 -119.328125 446.8359375 C-121.56394412 448.54679233 -123.70787852 450.31631396 -125.828125 452.16796875 C-127.11955032 453.29324579 -128.41119983 454.41826562 -129.703125 455.54296875 C-130.50363281 456.26613281 -130.50363281 456.26613281 -131.3203125 457.00390625 C-134.02472158 459.09176611 -136.77583107 459.37077717 -140.078125 459.48046875 C-140.80515625 459.51785156 -141.5321875 459.55523437 -142.28125 459.59375 C-149.08563179 458.45620764 -154.04174316 453.46398047 -158.828125 448.85546875 C-159.46967529 448.24517822 -160.11122559 447.6348877 -160.7722168 447.00610352 C-162.79941197 445.06875359 -164.81428809 443.11919179 -166.828125 441.16796875 C-167.81353271 440.2234082 -167.81353271 440.2234082 -168.81884766 439.25976562 C-192.85994532 416.16789431 -192.85994532 416.16789431 -193.140625 406.41796875 C-193.03459365 400.22397095 -190.76950316 397.4187886 -186.76953125 392.78125 C-176.81695177 381.01605908 -169.83990641 367.43983628 -170.546875 351.5625 C-172.37109461 336.03129693 -177.95544506 321.45454602 -190.2109375 311.16796875 C-200.0509482 304.01159733 -210.01568453 299.53630321 -222.17138672 298.53613281 C-235.69455881 297.4033337 -235.69455881 297.4033337 -240.828125 292.16796875 C-245.76137315 285.16593912 -244.98537003 275.55811998 -244.99609375 267.3046875 C-244.99942215 266.39145218 -245.00275055 265.47821686 -245.00617981 264.53730774 C-245.01121079 262.61708067 -245.01358933 260.69684498 -245.01342773 258.77661133 C-245.01561128 255.8737108 -245.03380018 252.97119277 -245.05273438 250.06835938 C-245.13610293 223.0016115 -245.13610293 223.0016115 -238.828125 216.16796875 C-234.49283207 213.59039487 -231.21598929 212.80625466 -226.203125 212.66796875 C-208.04767522 211.64030178 -192.99166326 204.57381961 -180.828125 191.16796875 C-171.86131214 179.39902687 -168.95190673 165.70670151 -169.828125 151.16796875 C-171.65429353 138.04431694 -176.72863645 127.97684954 -185.76953125 118.40234375 C-190.27583878 113.51124715 -192.25949085 109.26645683 -192.359375 102.57421875 C-190.82047602 95.60391161 -185.81276841 90.63615099 -181.015625 85.66796875 C-180.35908936 84.98017334 -179.70255371 84.29237793 -179.02612305 83.58374023 C-176.96850071 81.43690116 -174.89901018 79.30200859 -172.828125 77.16796875 C-172.1774707 76.49008301 -171.52681641 75.81219727 -170.85644531 75.11376953 C-148.2497765 51.59618832 -148.2497765 51.59618832 -136.140625 50.98046875 C-130.91113456 51.8056545 -127.56136209 55.38695135 -123.6796875 58.75 C-110.18876732 70.18956108 -95.30093281 74.17320351 -77.828125 73.16796875 C-69.65856137 72.00481339 -62.66581955 69.80647873 -55.828125 65.16796875 C-55.07917969 64.66394531 -54.33023438 64.15992188 -53.55859375 63.640625 C-40.51513491 54.19689415 -33.55554319 40.84571793 -30.828125 25.16796875 C-30.65360125 22.89916006 -30.50776388 20.62796295 -30.390625 18.35546875 C-30.03493541 12.74496879 -29.38325485 9.56510304 -25.828125 5.16796875 C-18.14782265 -0.55460947 -9.24394656 0.01205486 0 0 Z M-72.828125 135.16796875 C-73.39982422 135.57885742 -73.97152344 135.98974609 -74.56054688 136.41308594 C-88.78796383 146.79418337 -100.76433489 158.93799105 -110.68212891 173.49267578 C-111.68005199 174.95150582 -112.71039563 176.3880538 -113.74609375 177.8203125 C-134.37522363 207.70186676 -139.86002018 247.85576717 -133.86328125 283.0078125 C-129.95432866 303.56183828 -122.06608202 323.17463503 -109.828125 340.16796875 C-109.41723633 340.73966797 -109.00634766 341.31136719 -108.58300781 341.90039062 C-98.20191038 356.12780758 -86.0581027 368.10417864 -71.50341797 378.02197266 C-70.04458793 379.01989574 -68.60803995 380.05023938 -67.17578125 381.0859375 C-37.45768043 401.60222511 3.30157236 407.57867352 38.2890625 401.19140625 C56.0422731 397.60955593 74.02213788 391.2677935 89.171875 381.16796875 C87.52755714 377.03738626 84.54737216 374.19808029 81.48803711 371.08251953 C80.90723389 370.48375504 80.32643066 369.88499054 79.72802734 369.26808167 C77.80808956 367.29351582 75.87991926 365.32732253 73.94921875 363.36328125 C72.95934054 362.35555979 72.95934054 362.35555979 71.9494648 361.32748032 C68.45755813 357.77633996 64.95799735 354.23291886 61.45336914 350.69433594 C58.55436908 347.76412791 55.67197551 344.81896074 52.80297852 341.859375 C49.33658012 338.2836063 45.84407083 334.73546523 42.33099556 331.20556259 C40.99753575 329.85681677 39.6734968 328.49868873 38.35926628 327.13119888 C36.51825612 325.21975688 34.64560273 323.34586976 32.76147461 321.47705078 C32.22657913 320.90574936 31.69168365 320.33444794 31.14057922 319.74583435 C29.39613283 317.94835551 29.39613283 317.94835551 26.171875 316.16796875 C22.96843588 316.29888031 20.1874989 317.12686958 17.171875 318.16796875 C-8.6186488 324.98240551 -34.12973042 322.63166558 -57.41796875 309.2734375 C-62.27489015 306.35172735 -66.62254615 302.96196959 -70.828125 299.16796875 C-71.51132813 298.56597656 -72.19453125 297.96398437 -72.8984375 297.34375 C-88.12596742 283.10153084 -98.76732978 260.86916445 -99.95263672 239.97290039 C-100.87813272 211.04396488 -100.87813272 211.04396488 -94.453125 203.30859375 C-91.57157049 200.95875466 -89.65194503 200.30851372 -85.91583252 200.5584259 C-83.36289298 201.3038014 -82.07173675 202.37905302 -80.11230469 204.1706543 C-79.41625122 204.80635345 -78.72019775 205.44205261 -78.00305176 206.09701538 C-74.29874988 209.62423137 -70.68317155 213.23124764 -67.09375 216.875 C-65.45195415 218.52942712 -63.81002316 220.18372014 -62.16796875 221.83789062 C-59.60956931 224.42120794 -57.052811 227.00611098 -54.49853516 229.59350586 C-52.0138008 232.10836827 -49.52294433 234.61703604 -47.03125 237.125 C-46.26766174 237.90204788 -45.50407349 238.67909576 -44.71734619 239.47969055 C-44.00270203 240.19771347 -43.28805786 240.91573639 -42.55175781 241.65551758 C-41.92746887 242.28726395 -41.30317993 242.91901031 -40.65997314 243.56990051 C-38.19710957 245.71845418 -36.06240833 247.11361365 -32.76025391 247.2590332 C-32.03241699 247.18386475 -31.30458008 247.10869629 -30.5546875 247.03125 C-29.73597168 246.95028076 -28.91725586 246.86931152 -28.07373047 246.78588867 C-27.20893066 246.6851001 -26.34413086 246.58431152 -25.453125 246.48046875 C-24.56641113 246.38161377 -23.67969727 246.28275879 -22.76611328 246.1809082 C-11.54831214 245.15678482 -11.54831214 245.15678482 -0.828125 242.16796875 C2.86222861 236.24069311 2.8763964 227.29492225 3.83154297 220.48535156 C4.12378013 218.49545547 4.47243683 216.51398946 4.83203125 214.53515625 C5.73129402 209.15713988 5.73129402 209.15713988 3.94345093 204.20774841 C3.37607208 203.60608353 2.80869324 203.00441864 2.22412109 202.38452148 C1.26200714 201.35547195 1.26200714 201.35547195 0.28045654 200.30563354 C-3.36053097 196.6144266 -7.0522038 192.98470878 -10.7890625 189.390625 C-12.49453727 187.72698481 -14.19893313 186.062238 -15.90234375 184.39648438 C-18.55915795 181.80147373 -21.22116168 179.21317449 -23.90185547 176.64282227 C-26.50801532 174.13975644 -29.0876748 171.61177879 -31.6640625 169.078125 C-32.87018692 167.93864159 -32.87018692 167.93864159 -34.10067749 166.77613831 C-38.48288151 162.41668446 -40.72641072 159.38387328 -40.99557495 153.10842896 C-40.7269719 149.99577637 -39.98227545 148.42813054 -37.828125 146.16796875 C-20.10123471 138.07021389 4.31395179 140.66756994 22.03466797 147.2199707 C46.07654825 156.59768885 63.58108485 174.28798365 73.890625 197.7421875 C77.41193555 207.15739893 79.7608418 217.10659087 80.171875 227.16796875 C80.21183594 227.84214844 80.25179687 228.51632813 80.29296875 229.2109375 C80.65570198 240.583691 78.71006027 251.82842813 74.87890625 262.49609375 C74.1159755 265.37921326 74.21400645 266.4126063 75.171875 269.16796875 C77.05312543 271.32354524 78.94013115 273.31492866 80.97680664 275.31347656 C81.58167404 275.91878204 82.18654144 276.52408752 82.80973816 277.1477356 C84.81014024 279.14604822 86.82095751 281.13352605 88.83203125 283.12109375 C90.22131001 284.50477714 91.60992775 285.88912451 92.99790955 287.27410889 C96.65248411 290.91723015 100.31597832 294.5512526 103.98138428 298.18347168 C107.72021761 301.89161483 111.45057082 305.60826705 115.18164062 309.32421875 C122.50343042 316.61383579 129.83466862 323.89387146 137.171875 331.16796875 C156.65028852 305.72726035 161.02601272 267.96394437 157.40258789 237.07446289 C154.20495887 213.75613187 145.95431523 191.30593484 132.171875 172.16796875 C131.76098633 171.59626953 131.35009766 171.02457031 130.92675781 170.43554688 C120.54566038 156.20812992 108.4018527 144.23175886 93.84716797 134.31396484 C92.38833793 133.31604176 90.95178995 132.28569812 89.51953125 131.25 C42.36446264 98.69586891 -27.12176482 102.25197471 -72.828125 135.16796875 Z " fill="#000000" transform="translate(244.828125,-0.16796875)"/>
</svg>
